<svg width="328" height="327" viewBox="0 0 328 327" fill="none" xmlns="http://www.w3.org/2000/svg">
<path d="M69.8115 266.125C124.771 294.663 213.882 294.663 268.848 266.125C323.815 237.587 323.808 191.321 268.848 162.783C213.889 134.245 124.771 134.238 69.8049 162.783C14.8387 191.327 14.8452 237.587 69.8115 266.125Z" fill="#FAFAFA"/>
<path d="M215.319 271.367C226.431 271.367 235.438 267.099 235.438 261.835C235.438 256.57 226.431 252.302 215.319 252.302C204.207 252.302 195.199 256.57 195.199 261.835C195.199 267.099 204.207 271.367 215.319 271.367Z" fill="#F0F0F0"/>
<path d="M57.9902 96.996V129.792C57.9902 130.867 58.7512 131.311 59.6958 130.77L136.304 86.8053C136.799 86.4833 137.212 86.05 137.508 85.5403C137.804 85.0307 137.976 84.4589 138.009 83.8713V51.0496C138.009 49.9738 137.242 49.5304 136.304 50.0716L59.6958 94.0359C59.1955 94.3593 58.7799 94.7965 58.4833 95.3112C58.1867 95.8259 58.0177 96.4035 57.9902 96.996Z" fill="#F0F0F0"/>
<path d="M63.3235 96.481L86.2835 83.3106C87.3397 82.7042 88.1859 83.1932 88.1859 84.3994V107.33C88.1499 107.984 87.9588 108.62 87.6282 109.187C87.2976 109.754 86.8368 110.234 86.2835 110.59L63.3235 123.767C62.2739 124.367 61.4211 123.878 61.4211 122.672V99.754C61.4567 99.0981 61.6475 98.4599 61.9781 97.8911C62.3087 97.3224 62.7696 96.8392 63.3235 96.481Z" fill="#FAFAFA"/>
<path d="M81.9146 94.7531L75.0856 108.823L71.6088 106.828C71.275 106.647 70.8833 106.601 70.5163 106.701C70.1492 106.8 69.8354 107.038 69.6408 107.363L61.4211 121.452V122.685C61.4211 123.891 62.2739 124.38 63.3235 123.78L86.2835 110.603C86.8357 110.246 87.2956 109.765 87.6261 109.199C87.9566 108.633 88.1484 107.997 88.1859 107.343V99.278L83.5939 94.4923C83.4914 94.3498 83.351 94.2384 83.1884 94.1705C83.0259 94.1027 82.8476 94.0811 82.6734 94.1081C82.4992 94.1352 82.336 94.2098 82.202 94.3237C82.068 94.4376 81.9685 94.5863 81.9146 94.7531Z" fill="#00A1BD"/>
<path d="M64.8717 104.872C66.2904 103.952 67.471 102.713 68.3178 101.256C69.1647 99.7976 69.6539 98.1619 69.7458 96.4809C69.7458 95.0661 69.2866 94.0424 68.5322 93.4948L63.3235 96.4809C62.7714 96.8379 62.3114 97.319 61.981 97.8853C61.6505 98.4516 61.4587 99.0873 61.4211 99.7409V105.198C62.3199 105.72 63.5269 105.642 64.8717 104.872Z" fill="#00A1BD"/>
<path d="M96.7534 79.4442L131.252 59.643C132.04 59.1931 132.676 59.5126 132.676 60.3602C132.641 60.8352 132.494 61.2953 132.247 61.7032C132 62.1111 131.659 62.4551 131.252 62.7074L96.7534 82.5021C95.9662 82.952 95.3298 82.6325 95.3298 81.7849C95.3655 81.3111 95.5129 80.8522 95.7603 80.4456C96.0076 80.0389 96.3478 79.6959 96.7534 79.4442Z" fill="#FAFAFA"/>
<path d="M96.7534 86.2184L131.252 66.4172C132.04 65.9673 132.676 66.2868 132.676 67.1344C132.641 67.6094 132.494 68.0695 132.247 68.4774C132 68.8852 131.659 69.2293 131.252 69.4816L96.7534 89.2763C95.9662 89.7262 95.3298 89.4067 95.3298 88.5656C95.3645 88.0906 95.5115 87.6305 95.7588 87.2226C96.0062 86.8147 96.3469 86.4707 96.7534 86.2184Z" fill="#FAFAFA"/>
<path d="M96.7534 92.9927L131.252 73.198C132.04 72.7481 132.676 73.0676 132.676 73.9087C132.641 74.3837 132.494 74.8438 132.247 75.2517C132 75.6595 131.659 76.0036 131.252 76.2559L96.7534 96.0506C95.9662 96.507 95.3298 96.1875 95.3298 95.3399C95.3645 94.8649 95.5115 94.4048 95.7588 93.9969C96.0062 93.589 96.3469 93.245 96.7534 92.9927Z" fill="#FAFAFA"/>
<path d="M96.7534 99.7671L131.252 79.9723C132.04 79.5225 132.676 79.8419 132.676 80.6895C132.64 81.1634 132.493 81.6222 132.245 82.0289C131.998 82.4356 131.658 82.7786 131.252 83.0302L96.7534 102.864C95.9662 103.314 95.3298 102.994 95.3298 102.147C95.3594 101.666 95.504 101.2 95.7516 100.786C95.9992 100.372 96.3426 100.023 96.7534 99.7671Z" fill="#FAFAFA"/>
<path d="M41.9839 200.182V152.057C42.0154 151.469 42.1863 150.897 42.4828 150.387C42.7792 149.877 43.1927 149.444 43.6895 149.123L101.627 115.871C102.565 115.33 103.333 115.767 103.333 116.849V164.974C103.3 165.561 103.128 166.133 102.832 166.643C102.536 167.152 102.123 167.586 101.627 167.908L43.6895 201.16C42.7448 201.701 41.9839 201.264 41.9839 200.182Z" fill="#F0F0F0"/>
<path d="M41.9839 197.776V200.182C41.9839 201.264 42.7448 201.701 43.6895 201.16L101.627 167.908C102.123 167.586 102.536 167.152 102.832 166.643C103.128 166.133 103.3 165.561 103.333 164.974V162.561L41.9839 197.776Z" fill="#00A1BD"/>
<path d="M70.0147 154.131L75.9187 153.824C76.6403 153.785 76.8371 154.19 76.3582 154.737L69.5751 162.405C69.0963 162.946 68.7092 162.796 68.7092 162.079V155.507C68.7118 155.156 68.8478 154.819 69.09 154.564C69.3321 154.309 69.6625 154.154 70.0147 154.131Z" fill="#00A1BD"/>
<path d="M68.4929 166.61C67.7854 166.619 67.0882 166.441 66.4725 166.095C65.0161 165.254 64.2158 163.487 64.2158 161.179C64.2158 156.471 67.5549 150.747 71.6614 148.367C73.6885 147.2 75.5974 147.024 77.0669 147.858C78.5363 148.693 79.3301 150.466 79.3301 152.768C79.3301 157.482 75.9845 163.2 71.8845 165.58C70.8639 166.212 69.6946 166.567 68.4929 166.61ZM75.0529 147.787C73.9317 147.831 72.8416 148.166 71.891 148.758C67.9091 151.04 64.675 156.615 64.675 161.179C64.675 163.343 65.3966 164.954 66.7086 165.704C68.0206 166.454 69.7787 166.277 71.6614 165.195C75.6433 162.907 78.8774 157.371 78.8774 152.768C78.8774 150.603 78.1558 148.999 76.8438 148.243C76.2949 147.938 75.6753 147.781 75.0464 147.787H75.0529Z" fill="#00A1BD"/>
<path d="M45.1788 107.337L41.5905 105.289C39.8783 104.148 37.4971 104.194 34.8665 105.707C29.6185 108.706 25.407 116.315 25.407 122.704V124.158C25.407 130.548 34.0531 137.485 34.0531 137.485L37.5823 139.474C37.5823 139.474 35.4635 137.068 35.7062 136.572C38.0481 131.852 44.3129 118.512 44.3129 113.296V111.842C44.3262 110.79 44.1915 109.741 43.9127 108.725L44.3129 108.954L45.1788 107.337ZM34.8599 121.987C32.2359 123.487 30.1302 122.268 30.1302 119.275C31.534 119.053 35.0699 113.055 34.8599 111.131C37.4839 109.632 39.5831 110.851 39.5897 113.844C39.5008 115.475 39.0262 117.063 38.2044 118.477C37.3826 119.892 36.2368 121.095 34.8599 121.987Z" fill="#00A1BD"/>
<g opacity="0.2">
<path d="M45.1788 107.337L41.5905 105.289C39.8783 104.148 37.4971 104.194 34.8665 105.707C29.6185 108.706 25.407 116.315 25.407 122.704V124.158C25.407 130.548 34.0531 137.485 34.0531 137.485L37.5823 139.474C37.5823 139.474 35.4635 137.068 35.7062 136.572C38.0481 131.852 44.3129 118.512 44.3129 113.296V111.842C44.3262 110.79 44.1915 109.741 43.9127 108.725L44.3129 108.954L45.1788 107.337ZM34.8599 121.987C32.2359 123.487 30.1302 122.268 30.1302 119.275C31.534 119.053 35.0699 113.055 34.8599 111.131C37.4839 109.632 39.5831 110.851 39.5897 113.844C39.5008 115.475 39.0262 117.063 38.2044 118.477C37.3826 119.892 36.2368 121.095 34.8599 121.987Z" fill="black"/>
</g>
<path d="M45.1787 107.337C45.1395 107.309 45.0978 107.285 45.0541 107.265C43.3682 106.326 41.1181 106.457 38.6384 107.878C34.8992 110.029 31.6651 114.535 30.1104 119.275C29.5092 121.078 29.1906 122.963 29.1658 124.862V126.336C29.1658 131.259 34.7746 136.97 37.3527 139.337C37.4084 139.387 37.4676 139.432 37.5298 139.474C37.6814 139.566 37.8507 139.626 38.0269 139.649C38.2032 139.672 38.3823 139.659 38.5529 139.609C38.7235 139.559 38.8817 139.474 39.0173 139.36C39.1529 139.246 39.263 139.105 39.3403 138.946C41.5707 134.382 48.0586 120.768 48.0586 115.474V114.02C48.0979 110.734 46.9762 108.413 45.1787 107.337ZM33.9939 122.385C33.9395 122.075 33.9131 121.761 33.9152 121.446C34.0018 119.814 34.4747 118.225 35.2955 116.809C36.1162 115.393 37.2615 114.189 38.6384 113.296C38.9135 113.139 39.2008 113.003 39.4978 112.892C41.7019 112.096 43.3682 113.355 43.3682 116.008C43.2798 117.639 42.8054 119.226 41.9835 120.64C41.1616 122.054 40.0155 123.255 38.6384 124.145C36.3227 125.488 34.3941 124.68 33.9939 122.385Z" fill="#00A1BD"/>
<path d="M43.3684 116.015C43.28 117.645 42.8056 119.232 41.9837 120.646C41.1619 122.06 40.0157 123.261 38.6386 124.152C36.3229 125.456 34.3943 124.68 33.9941 122.385C34.2947 122.28 34.5847 122.147 34.8601 121.987C36.2361 121.094 37.3809 119.892 38.2016 118.477C39.0222 117.062 39.4956 115.475 39.5833 113.844C39.5863 113.527 39.5577 113.21 39.498 112.898C41.7021 112.103 43.3684 113.361 43.3684 116.015Z" fill="#00A1BD"/>
<g opacity="0.2">
<path d="M43.3684 116.015C43.28 117.645 42.8056 119.232 41.9837 120.646C41.1619 122.06 40.0157 123.261 38.6386 124.152C36.3229 125.456 34.3943 124.68 33.9941 122.385C34.2947 122.28 34.5847 122.147 34.8601 121.987C36.2361 121.094 37.3809 119.892 38.2016 118.477C39.0222 117.062 39.4956 115.475 39.5833 113.844C39.5863 113.527 39.5577 113.21 39.498 112.898C41.7021 112.103 43.3684 113.361 43.3684 116.015Z" fill="black"/>
</g>
<path d="M112.294 196.967C112.294 196.967 114.662 181.971 109.401 169.075C104.14 156.178 97.0485 155.383 93.3749 157.215C89.7013 159.047 92.0629 166.199 95.3429 171.004C99.7118 177.309 106.928 190.884 106.692 203.076L112.294 196.967Z" fill="#00A1BD"/>
<path opacity="0.2" d="M112.294 196.967C112.294 196.967 114.662 181.971 109.401 169.075C104.14 156.178 97.0485 155.383 93.3749 157.215C89.7013 159.047 92.0629 166.199 95.3429 171.004C99.7118 177.309 106.928 190.884 106.692 203.076L112.294 196.967Z" fill="black"/>
<path d="M109.932 197.919C109.873 197.917 109.816 197.904 109.762 197.88C109.708 197.855 109.66 197.821 109.621 197.777C109.581 197.734 109.55 197.683 109.53 197.628C109.511 197.573 109.502 197.515 109.506 197.456C110.372 176.925 100.053 161.596 95.5988 158.61C95.5501 158.577 95.5083 158.536 95.4759 158.487C95.4435 158.439 95.421 158.384 95.4097 158.327C95.3984 158.27 95.3986 158.211 95.4102 158.154C95.4218 158.096 95.4447 158.042 95.4774 157.994C95.5101 157.945 95.5521 157.904 95.601 157.872C95.6499 157.839 95.7047 157.817 95.7622 157.806C95.8198 157.795 95.879 157.795 95.9365 157.806C95.994 157.818 96.0486 157.841 96.0973 157.873C101.345 161.355 111.264 177.029 110.392 197.495C110.39 197.553 110.377 197.61 110.353 197.663C110.328 197.716 110.294 197.763 110.251 197.803C110.209 197.842 110.158 197.873 110.104 197.893C110.049 197.913 109.991 197.922 109.932 197.919Z" fill="white"/>
<path d="M111.362 214.773C110.464 212.53 108.142 210.027 102.178 207.354C96.2155 204.68 91.7284 201.114 90.9019 198.532C90.6531 197.819 90.6206 197.049 90.8084 196.317C90.9961 195.586 91.3959 194.925 91.958 194.418C91.958 194.418 86.3361 193.766 85.6276 190.343C84.742 186.027 89.6555 185.746 89.6555 185.746C89.6555 185.746 83.207 176.723 81.4948 172.706C79.7827 168.69 81.7572 168.449 85.9163 169.981C90.0753 171.513 97.9998 179.226 99.2265 181.58C99.2265 181.58 101.372 178.972 103.681 180.687C105.99 182.401 106.101 187.533 104.737 189.384C105.657 189.214 106.607 189.312 107.472 189.668C108.337 190.023 109.08 190.62 109.611 191.386C111.959 194.444 112.734 202.092 112.734 202.092L111.362 214.773Z" fill="#00A1BD"/>
<path d="M111.782 212.687C111.683 212.686 111.586 212.652 111.508 212.59C111.43 212.529 111.374 212.444 111.349 212.348C108.161 199.145 93.0272 178.072 83.6267 171.37C83.5789 171.336 83.5383 171.293 83.5071 171.244C83.476 171.194 83.4549 171.139 83.4452 171.082C83.4354 171.024 83.4372 170.965 83.4503 170.908C83.4635 170.851 83.4877 170.798 83.5218 170.75C83.5558 170.703 83.5989 170.662 83.6486 170.631C83.6984 170.6 83.7538 170.579 83.8116 170.57C83.8695 170.56 83.9287 170.562 83.9859 170.575C84.0431 170.588 84.0972 170.612 84.145 170.646C93.6635 177.433 108.988 198.773 112.222 212.139C112.247 212.254 112.227 212.374 112.164 212.474C112.102 212.574 112.002 212.646 111.887 212.674L111.782 212.687Z" fill="white"/>
<path d="M230.525 79.7376C230.447 79.7366 230.37 79.7165 230.302 79.6789L228.459 78.6161C228.408 78.587 228.363 78.5483 228.327 78.502C228.292 78.4558 228.265 78.403 228.25 78.3467C228.235 78.2904 228.231 78.2317 228.239 78.1739C228.246 78.116 228.265 78.0603 228.295 78.0098C228.324 77.9593 228.363 77.915 228.409 77.8794C228.456 77.8439 228.509 77.8178 228.566 77.8027C228.622 77.7876 228.681 77.7837 228.74 77.7912C228.798 77.7988 228.854 77.8177 228.905 77.8468L230.748 78.9095C230.799 78.9386 230.843 78.9773 230.879 79.0236C230.915 79.0698 230.941 79.1226 230.957 79.1789C230.972 79.2352 230.976 79.294 230.968 79.3518C230.96 79.4096 230.941 79.4654 230.912 79.5159C230.873 79.5834 230.816 79.6394 230.748 79.6784C230.68 79.7173 230.603 79.7377 230.525 79.7376Z" fill="white"/>
<path d="M111.363 118.395V215.399C111.363 216.481 112.124 216.918 113.062 216.377L226.904 151.053C227.4 150.731 227.812 150.298 228.108 149.788C228.405 149.279 228.576 148.707 228.609 148.119V51.1147C228.609 50.0324 227.842 49.5956 226.904 50.1367L113.062 115.461C112.566 115.783 112.154 116.216 111.859 116.726C111.564 117.236 111.394 117.807 111.363 118.395Z" fill="#455A64"/>
<path d="M124.686 136.312C124.686 139.695 127.225 140.973 130.367 139.174L220.613 87.3854V75.1539L130.367 126.936C127.225 128.742 124.686 132.934 124.686 136.312Z" fill="#F5F5F5"/>
<path d="M228.288 70.766C231.424 68.9664 233.969 70.2444 233.969 73.6217C233.969 76.9991 231.424 81.198 228.288 82.9975L220.646 87.3854V75.1539L228.288 70.766Z" fill="#00A1BD"/>
<path d="M225.533 81.0742C225.206 81.0788 224.884 80.9954 224.601 80.8329C224.253 80.6011 223.974 80.28 223.794 79.9036C223.613 79.5272 223.539 79.1094 223.578 78.6944C223.625 77.6739 223.918 76.6795 224.431 75.7946C224.945 74.9097 225.665 74.1602 226.53 73.6088C226.86 73.341 227.265 73.1795 227.69 73.1458C228.115 73.1121 228.54 73.2078 228.909 73.4201C229.278 73.6324 229.573 73.9514 229.755 74.3345C229.937 74.7176 229.997 75.1467 229.928 75.5648C229.879 76.5849 229.586 77.5787 229.072 78.4633C228.559 79.3479 227.84 80.0978 226.976 80.6504C226.541 80.9148 226.043 81.061 225.533 81.0742ZM227.967 74.0652C227.615 74.0824 227.273 74.1903 226.976 74.3781C226.251 74.8565 225.648 75.4951 225.213 76.244C224.779 76.9928 224.524 77.8315 224.47 78.6944C224.402 78.954 224.422 79.2286 224.527 79.4759C224.631 79.7232 224.814 79.9297 225.048 80.0637C225.282 80.1976 225.553 80.2517 225.821 80.2175C226.089 80.1833 226.338 80.0628 226.53 79.8745C227.255 79.3968 227.859 78.7584 228.294 78.0094C228.729 77.2604 228.983 76.4214 229.036 75.5582C229.069 75.2997 229.034 75.0369 228.932 74.7965C228.831 74.5561 228.668 74.3465 228.459 74.189C228.309 74.1039 228.139 74.0611 227.967 74.0652Z" fill="white"/>
<path d="M229.6 97.5371L142.352 147.572C141.854 147.892 141.44 148.324 141.144 148.835C140.847 149.345 140.677 149.917 140.646 150.506V177.192C140.646 178.274 141.407 178.711 142.352 178.17L229.6 128.116C230.097 127.795 230.51 127.362 230.807 126.852C231.103 126.342 231.274 125.77 231.306 125.182V98.5151C231.273 97.4328 230.512 96.9959 229.6 97.5371Z" fill="#00A1BD"/>
<path opacity="0.2" d="M229.6 97.5371L142.352 147.572C141.854 147.892 141.44 148.324 141.144 148.835C140.847 149.345 140.677 149.917 140.646 150.506V177.192C140.646 178.274 141.407 178.711 142.352 178.17L229.6 128.116C230.097 127.795 230.51 127.362 230.807 126.852C231.103 126.342 231.274 125.77 231.306 125.182V98.5151C231.273 97.4328 230.512 96.9959 229.6 97.5371Z" fill="white"/>
<path d="M174.07 133.821L189.879 124.745C190.666 124.295 191.303 124.615 191.303 125.462C191.267 125.936 191.12 126.395 190.872 126.802C190.625 127.208 190.285 127.551 189.879 127.803L174.07 136.879C173.282 137.329 172.646 137.009 172.646 136.162C172.682 135.688 172.829 135.229 173.077 134.822C173.324 134.416 173.664 134.073 174.07 133.821Z" fill="white"/>
<path d="M172.646 142.277C172.646 143.125 173.302 143.444 174.07 142.995L221.859 115.571C222.264 115.318 222.603 114.974 222.849 114.566C223.096 114.158 223.242 113.698 223.276 113.224C223.276 112.383 222.62 112.064 221.859 112.514L174.07 139.937C173.664 140.188 173.324 140.531 173.077 140.938C172.829 141.345 172.682 141.803 172.646 142.277Z" fill="white"/>
<path d="M172.646 148.393C172.646 149.241 173.302 149.56 174.07 149.11L221.859 121.687C222.264 121.434 222.603 121.089 222.849 120.682C223.096 120.274 223.242 119.814 223.276 119.34C223.276 118.499 222.62 118.179 221.859 118.629L174.07 146.052C173.664 146.304 173.324 146.647 173.077 147.054C172.829 147.46 172.682 147.919 172.646 148.393Z" fill="white"/>
<path d="M172.646 154.509C172.646 155.357 173.302 155.676 174.07 155.226L221.859 127.803C222.264 127.55 222.603 127.205 222.849 126.797C223.096 126.39 223.242 125.93 223.276 125.456C223.276 124.615 222.62 124.295 221.859 124.745L174.07 152.168C173.664 152.42 173.324 152.763 173.077 153.17C172.829 153.576 172.682 154.035 172.646 154.509Z" fill="white"/>
<path d="M145.042 149.097L165.614 137.29C166.558 136.755 167.319 137.192 167.319 138.268V158.825C167.287 159.413 167.116 159.985 166.82 160.495C166.523 161.005 166.11 161.438 165.614 161.759L145.042 173.56C144.103 174.101 143.336 173.665 143.336 172.589V152.031C143.367 151.443 143.538 150.871 143.835 150.361C144.131 149.851 144.545 149.418 145.042 149.097Z" fill="white"/>
<path d="M161.704 147.552L155.583 160.162L152.467 158.375C152.166 158.203 151.809 158.156 151.473 158.245C151.137 158.334 150.851 158.552 150.677 158.851L143.336 171.48V172.582C143.336 173.665 144.103 174.101 145.042 173.56L165.614 161.759C166.111 161.438 166.524 161.005 166.82 160.495C167.117 159.985 167.288 159.413 167.319 158.825V151.607L163.18 147.317C163.086 147.197 162.962 147.105 162.82 147.049C162.677 146.993 162.523 146.977 162.372 147.001C162.221 147.025 162.08 147.089 161.962 147.186C161.845 147.282 161.755 147.409 161.704 147.552Z" fill="#00A1BD"/>
<path d="M146.426 156.621C147.698 155.797 148.756 154.686 149.515 153.378C150.274 152.071 150.713 150.604 150.795 149.097C150.838 148.597 150.762 148.093 150.573 147.628C150.384 147.162 150.087 146.747 149.706 146.418L145.042 149.097C144.545 149.418 144.131 149.851 143.835 150.361C143.538 150.871 143.367 151.443 143.336 152.031V156.921C144.13 157.378 145.219 157.313 146.426 156.621Z" fill="#00A1BD"/>
<path d="M229.6 137.29L142.352 187.324C141.855 187.645 141.442 188.078 141.145 188.588C140.849 189.098 140.678 189.67 140.646 190.258V216.964C140.646 218.04 141.407 218.477 142.352 217.942L229.6 167.875C230.097 167.554 230.51 167.121 230.807 166.611C231.103 166.101 231.274 165.529 231.306 164.941V138.268C231.273 137.192 230.512 136.768 229.6 137.29Z" fill="#00A1BD"/>
<path opacity="0.2" d="M229.6 137.29L142.352 187.324C141.855 187.645 141.442 188.078 141.145 188.588C140.849 189.098 140.678 189.67 140.646 190.258V216.964C140.646 218.04 141.407 218.477 142.352 217.942L229.6 167.875C230.097 167.554 230.51 167.121 230.807 166.611C231.103 166.101 231.274 165.529 231.306 164.941V138.268C231.273 137.192 230.512 136.768 229.6 137.29Z" fill="white"/>
<path d="M174.07 173.573L189.879 164.504C190.666 164.054 191.303 164.374 191.303 165.215C191.268 165.69 191.121 166.15 190.874 166.558C190.626 166.966 190.286 167.31 189.879 167.562L174.07 176.631C173.282 177.081 172.646 176.762 172.646 175.921C172.681 175.446 172.828 174.985 173.075 174.578C173.322 174.17 173.663 173.826 174.07 173.573Z" fill="white"/>
<path d="M172.646 182.036C172.646 182.877 173.302 183.197 174.07 182.747L221.859 155.324C222.263 155.071 222.602 154.728 222.848 154.321C223.094 153.915 223.241 153.456 223.276 152.983C223.276 152.136 222.62 151.816 221.859 152.266L174.07 179.689C173.663 179.941 173.322 180.285 173.075 180.693C172.828 181.101 172.681 181.561 172.646 182.036Z" fill="white"/>
<path d="M172.646 188.152C172.646 188.993 173.302 189.313 174.07 188.863L221.859 161.44C222.263 161.187 222.602 160.843 222.848 160.437C223.094 160.03 223.241 159.572 223.276 159.099C223.276 158.251 222.62 157.932 221.859 158.382L174.07 185.805C173.663 186.057 173.322 186.401 173.075 186.809C172.828 187.217 172.681 187.677 172.646 188.152Z" fill="white"/>
<path d="M172.646 194.268C172.646 195.109 173.302 195.428 174.07 194.978L221.859 167.555C222.263 167.303 222.602 166.959 222.848 166.553C223.094 166.146 223.241 165.688 223.276 165.215C223.276 164.367 222.62 164.048 221.859 164.497L174.07 191.921C173.663 192.173 173.322 192.517 173.075 192.925C172.828 193.333 172.681 193.793 172.646 194.268Z" fill="white"/>
<path d="M145.042 188.856L165.614 177.049C166.558 176.507 167.319 176.944 167.319 178.027V198.578C167.289 199.166 167.118 199.739 166.822 200.249C166.525 200.759 166.111 201.192 165.614 201.512L145.042 213.319C144.103 213.861 143.336 213.424 143.336 212.341V191.79C143.367 191.202 143.538 190.63 143.835 190.12C144.131 189.61 144.545 189.177 145.042 188.856Z" fill="white"/>
<path d="M161.704 187.311L155.583 199.921L152.467 198.128C152.318 198.042 152.153 197.987 151.982 197.965C151.811 197.944 151.638 197.955 151.471 198C151.305 198.045 151.149 198.122 151.013 198.227C150.877 198.331 150.762 198.462 150.677 198.61L143.336 211.239V212.341C143.336 213.424 144.103 213.86 145.042 213.319L165.614 201.512C166.11 201.192 166.524 200.76 166.82 200.251C167.117 199.743 167.288 199.171 167.319 198.584V191.36L163.18 187.076C163.087 186.954 162.963 186.86 162.821 186.803C162.678 186.746 162.523 186.729 162.371 186.753C162.219 186.777 162.077 186.841 161.96 186.94C161.842 187.038 161.754 187.166 161.704 187.311Z" fill="#00A1BD"/>
<path d="M146.426 196.374C147.697 195.551 148.756 194.441 149.515 193.134C150.274 191.828 150.713 190.362 150.795 188.856C150.838 188.356 150.762 187.852 150.573 187.387C150.384 186.921 150.087 186.506 149.706 186.177L145.042 188.856C144.545 189.177 144.131 189.61 143.835 190.12C143.538 190.63 143.367 191.202 143.336 191.79V196.68C144.13 197.13 145.219 197.065 146.426 196.374Z" fill="#00A1BD"/>
<path d="M228.609 55.268V51.1147C228.609 50.0324 227.842 49.5956 226.904 50.1367L113.068 115.461C112.571 115.781 112.158 116.214 111.861 116.724C111.565 117.234 111.394 117.807 111.363 118.395V122.554L228.609 55.268Z" fill="#00A1BD"/>
<path d="M214.643 58.7627C214.276 59.0022 213.971 59.3241 213.752 59.7024C213.534 60.0806 213.407 60.5047 213.384 60.9404C213.384 61.7424 213.948 62.0684 214.643 61.6641C215.012 61.4279 215.32 61.1079 215.54 60.7304C215.76 60.3529 215.887 59.9287 215.909 59.493C215.909 58.691 215.345 58.365 214.643 58.7627Z" fill="#F5F5F5"/>
<path d="M219.662 55.9199C219.293 56.1587 218.987 56.4803 218.767 56.8586C218.547 57.2369 218.42 57.6614 218.396 58.0976C218.396 58.8996 218.966 59.2191 219.662 58.8213C220.031 58.5837 220.338 58.2624 220.558 57.8839C220.778 57.5053 220.905 57.0803 220.928 56.6437C220.928 55.8091 220.364 55.4896 219.662 55.9199Z" fill="#F5F5F5"/>
<path d="M224.68 53.012C224.311 53.2482 224.004 53.5683 223.783 53.9458C223.563 54.3233 223.437 54.7474 223.414 55.1832C223.414 55.9852 223.978 56.3112 224.68 55.9134C225.047 55.6739 225.352 55.3521 225.571 54.9738C225.79 54.5955 225.916 54.1714 225.94 53.7358C225.94 52.9338 225.375 52.6078 224.68 53.012Z" fill="#F5F5F5"/>
<path d="M286.16 164.582C286.161 165.796 285.793 166.982 285.106 167.985C284.418 168.988 283.442 169.761 282.305 170.205C281.169 170.648 279.924 170.741 278.733 170.471C277.543 170.201 276.462 169.58 275.632 168.69L275.231 168.207C274.298 166.97 273.878 165.423 274.058 163.887C274.238 162.35 275.004 160.941 276.199 159.95C277.394 158.959 278.926 158.461 280.48 158.56C282.033 158.659 283.489 159.347 284.547 160.481L284.96 160.977C285.739 162.019 286.16 163.284 286.16 164.582Z" fill="#455A64"/>
<path d="M286.16 164.582C286.161 165.796 285.793 166.982 285.106 167.985C284.418 168.988 283.442 169.761 282.305 170.205C281.169 170.648 279.924 170.741 278.733 170.471C277.543 170.2 276.462 169.58 275.632 168.69L275.231 168.207L249.936 137.844L260.596 131.728L284.547 160.468L284.96 160.964C285.742 162.01 286.163 163.279 286.16 164.582Z" fill="#455A64"/>
<path d="M265.234 156.204C266.296 157.312 267.742 157.977 269.279 158.065C270.816 158.154 272.329 157.659 273.513 156.681C274.697 155.703 275.463 154.315 275.657 152.797C275.85 151.279 275.457 149.745 274.556 148.504L271.427 144.755C272.362 145.993 272.783 147.541 272.602 149.079C272.422 150.617 271.654 152.027 270.457 153.018C269.26 154.009 267.726 154.506 266.172 154.404C264.617 154.303 263.161 153.612 262.105 152.475L265.234 156.204Z" fill="#00A1BD"/>
<path d="M260.189 83.9951C262.099 84.2063 263.945 84.8032 265.614 85.749L257.92 81.3024C252.757 77.775 245.324 77.9837 237.065 82.7172C221.472 91.6692 208.824 113.439 208.824 131.343C208.824 140.139 211.836 146.424 216.801 149.41L216.906 149.475L225.12 154.176C223.663 153.235 222.393 152.034 221.374 150.636C223.397 150.856 225.444 150.739 227.429 150.29C228.15 150.134 228.878 149.945 229.62 149.71C229.523 149.681 229.428 149.644 229.338 149.599C228.943 149.416 228.565 149.197 228.209 148.947C227.564 148.5 226.989 147.959 226.504 147.343C225.841 146.5 225.302 145.567 224.903 144.572C224.369 144.649 223.829 144.688 223.289 144.69C222.012 144.715 220.745 144.464 219.576 143.953C219.303 143.829 219.038 143.687 218.783 143.529C218.553 143.386 218.323 143.216 218.127 143.047C217.652 140.84 217.421 138.588 217.438 136.331C217.438 118.434 230.085 96.657 245.692 87.705C247.684 86.5497 249.795 85.6098 251.989 84.9014C252.58 85.1415 253.136 85.4594 253.642 85.8468C254.178 86.2553 254.661 86.7283 255.079 87.2551C255.744 88.1007 256.285 89.0359 256.686 90.0326C257.223 89.9579 257.765 89.9209 258.307 89.9218C259.79 89.8822 261.257 90.2355 262.557 90.9454C262.887 91.1237 263.2 91.3287 263.496 91.5583C263.377 91.0367 263.253 90.5216 263.102 90.0326C262.509 87.8605 261.522 85.8144 260.189 83.9951Z" fill="#263238"/>
<path d="M265.614 85.749L265.168 85.5078C263.618 84.7005 261.929 84.1875 260.189 83.9951C258.322 83.7882 256.434 83.874 254.594 84.2494C253.707 84.4164 252.831 84.6341 251.97 84.9014C249.776 85.6098 247.665 86.5497 245.672 87.705C230.066 96.6569 217.418 118.434 217.418 136.331C217.401 138.588 217.632 140.84 218.107 143.047C218.192 143.444 218.291 143.823 218.389 144.201C218.973 146.509 219.988 148.687 221.38 150.623C222.002 151.475 222.717 152.256 223.512 152.951C224.019 153.394 224.559 153.799 225.126 154.163C230.276 157.469 237.59 157.182 245.659 152.54C261.265 143.588 273.913 121.818 273.913 103.914C273.906 94.9618 270.738 88.6699 265.614 85.749ZM262.531 90.965C262.86 91.1432 263.174 91.3482 263.469 91.5779C263.964 91.9772 264.415 92.4274 264.814 92.921C266.782 95.3725 267.825 99.1867 267.825 103.933C267.825 119.581 256.28 139.48 242.615 147.324C239.171 149.28 235.858 150.349 233.044 150.349C231.87 150.363 230.705 150.141 229.62 149.697C229.523 149.668 229.428 149.631 229.338 149.586C228.943 149.403 228.565 149.184 228.209 148.934C227.767 148.626 227.358 148.272 226.989 147.878C226.825 147.709 226.668 147.519 226.51 147.33C225.847 146.487 225.308 145.554 224.91 144.559C223.91 141.928 223.434 139.13 223.506 136.318C223.506 136.109 223.506 135.907 223.506 135.666C223.794 120.083 235.215 100.634 248.703 92.9014C249.011 92.7254 249.326 92.5493 249.641 92.3863C251.816 91.1788 254.191 90.3684 256.653 89.9935C257.19 89.9188 257.732 89.8817 258.274 89.8827C259.441 89.8727 260.598 90.0943 261.678 90.5347C261.974 90.6515 262.26 90.7933 262.531 90.9585V90.965Z" fill="#455A64"/>
<path d="M267.825 103.927C267.825 119.575 256.279 139.474 242.615 147.317C241.786 147.797 240.932 148.232 240.057 148.621C237.871 149.669 235.489 150.251 233.064 150.33C231.89 150.343 230.725 150.122 229.639 149.678C229.542 149.649 229.448 149.612 229.357 149.567C228.962 149.383 228.585 149.165 228.229 148.915C227.583 148.468 227.008 147.927 226.523 147.311C226.353 147.083 226.176 146.861 226.018 146.607C226.327 146.607 226.674 146.652 226.976 146.652C229.79 146.652 233.103 145.603 236.547 143.627C250.192 135.829 261.744 115.956 261.744 100.256C261.744 95.9463 260.885 92.432 259.251 89.9609C260.404 90.0362 261.525 90.3682 262.531 90.9324C262.86 91.1107 263.174 91.3157 263.469 91.5453C263.964 91.9446 264.415 92.3948 264.814 92.8884C266.546 95.0465 267.563 98.2544 267.773 102.225C267.805 102.799 267.825 103.36 267.825 103.927Z" fill="#37474F"/>
<path opacity="0.6" d="M265.188 102.121C265.188 117.769 253.642 137.668 239.978 145.511C236.534 147.467 233.228 148.537 230.407 148.537C229.235 148.55 228.073 148.329 226.989 147.885C226.825 147.715 226.668 147.526 226.51 147.337C225.847 146.493 225.308 145.56 224.91 144.566C223.91 141.935 223.434 139.136 223.506 136.325C223.506 136.116 223.506 135.914 223.506 135.673C223.794 120.09 235.215 100.641 248.703 92.908C249.011 92.732 249.326 92.5559 249.641 92.3929C251.816 91.1854 254.191 90.375 256.653 90.0001C257.19 89.9254 257.732 89.8883 258.274 89.8892C259.441 89.8792 260.599 90.1009 261.678 90.5412C261.856 90.7173 262.02 90.9064 262.177 91.0954C264.145 93.56 265.188 97.3742 265.188 102.121Z" fill="white"/>
</svg>
