<svg width="64" height="64" viewBox="0 0 64 64" fill="none" xmlns="http://www.w3.org/2000/svg">
<path fill-rule="evenodd" clip-rule="evenodd" d="M32 0C22.1816 0 14.2222 7.1596 14.2222 15.9914C14.2222 24.8232 22.1816 31.9828 32 31.9828C41.8184 31.9828 49.7778 24.8232 49.7778 15.9914C49.7778 7.1596 41.8184 0 32 0Z" fill="#00A1BD"/>
<path d="M17.7778 38.3794C13.0628 38.3794 8.54097 40.0642 5.20699 43.0632C1.87301 46.0621 0 50.1296 0 54.3708V60.7674C0 62.5337 1.59188 63.9657 3.55556 63.9657C5.51923 63.9657 37.854 64.3454 37.854 62.5791L42.6667 59.1682C42.6667 56.6235 42.4441 59.3685 44.4444 57.5691C46.4448 55.7697 18.5044 59.1682 21.3333 59.1682L39.1111 49.5734C41.9401 49.5734 47.7774 57.3688 49.7778 59.1682C51.7782 60.9676 46.2222 44.776 39.1111 46.3751L7.11111 63.9657C32 63.9657 58.4808 63.9657 60.4444 63.9657C62.4081 63.9657 64 62.5337 64 60.7674V54.3708C64 50.1296 62.127 46.0621 58.793 43.0632C55.459 40.0642 50.9372 38.3794 46.2222 38.3794H17.7778Z" fill="#00A1BD"/>
</svg>
