<?xml version="1.0" encoding="UTF-8"?><svg xmlns="http://www.w3.org/2000/svg" xmlns:xlink="http://www.w3.org/1999/xlink" viewBox="0 0 792.34 556.46"><defs><style>.j{fill:#dee5ef;}.k{fill:#fff;}.l{fill:#92afe4;opacity:.14;}.m{clip-path:url(#h);}.n{opacity:.3;}.n,.o{fill:#a4acb6;}.p{fill:#e4effc;}.q{fill:#4f6f9f;opacity:.08;}.r{fill:none;}.s{clip-path:url(#i);}</style><clipPath id="h"><path d="M324.17,305.73c.27,.64,1.02,.94,1.66,.67l3.78-1.61c.64-.27,.94-1.02,.67-1.66l-.23-.55,3.15-1.34c1.65-.7,2.42-2.61,1.72-4.26l-9.26-21.79c-.7-1.65-2.61-2.42-4.26-1.72l-3.15,1.34-.23-.55c-.27-.64-1.02-.94-1.66-.67l-3.78,1.61c-.64,.27-.94,1.02-.67,1.66l.23,.55-1.79,.76-.23-.55c-.27-.64-1.02-.94-1.66-.67l-3.78,1.61c-.64,.27-.94,1.02-.67,1.66l.23,.55-22.2,9.44c-1.65,.7-2.42,2.61-1.72,4.26l9.26,21.79c.7,1.65,2.61,2.42,4.26,1.72l22.2-9.44,.23,.55c.27,.64,1.02,.94,1.66,.67l3.78-1.61c.64-.27,.94-1.02,.67-1.66l-.23-.55,1.79-.76,.23,.55Z" fill="#e4effc"/></clipPath><clipPath id="i"><rect x="451.39" y="216.06" width="68.52" height="26.96" rx="2.92" ry="2.92" transform="translate(-51.49 224.67) rotate(-24.78)" fill="#e4effc"/></clipPath></defs><g id="a"/><g id="b"/><g id="c"/><g id="d"/><g id="e"/><g id="f"/><g id="g"><path d="M172.93,167.93c-7.7,54.25,56.5,77.83,58.21,151.66,.92,39.58-17.17,48.57-6.89,65.87,22.15,37.3,103.34-9.31,205.28,29.11,57.5,21.67,68.27,50.29,95.49,41.87,23.1-7.14,31.74-32.81,68.43-175.66,28.83-112.28,31.8-128.79,20.43-140.94-31.4-33.53-101.41,41.59-212.43,21.45-89.66-16.27-126.48-80.24-178.72-58.21-25,10.54-45.92,37.57-49.79,64.85Z" fill="#dee5ef"/><circle cx="399.51" cy="263.76" r="83.06" transform="translate(-69.49 359.75) rotate(-45)" fill="#4f6f9f" opacity=".08"/><circle cx="396.17" cy="260.87" r="83.06" transform="translate(-68.43 356.54) rotate(-45)" fill="#fff"/><g><path d="M333.58,302.14l16.39-6.97-8.44-19.84-16.39,6.97-.41-.97c-.7-1.65-2.61-2.42-4.26-1.72l-3.15,1.34-.23-.55c-.27-.64-1.02-.94-1.66-.67l-3.78,1.61c-.64,.27-.94,1.02-.67,1.66l.23,.55-1.79,.76-.23-.55c-.27-.64-1.02-.94-1.66-.67l-3.78,1.61c-.64,.27-.94,1.02-.67,1.66l.23,.55-22.2,9.44c-1.65,.7-2.42,2.61-1.72,4.26l2.08,4.89-7.37,3.13,1.29,3.05c-18.42,7.93-39.13,16.64-59.22,17.21-8.6,.25-25.29-2.94-40.43-27.03-4.14-6.58-7.49-13.62-10.23-19.64-.48-1.04-.94-2.16-1.42-3.34-2.34-5.69-5-12.14-11.21-15.27-8.86-4.47-16.78,.55-23.13,4.59-.77,.49-1.54,.98-2.29,1.44-2.03,1.24-4.12,2.58-6.14,3.89-10.64,6.85-21.63,13.93-33.57,12.75-10.77-1.06-20.38-8.18-25.7-19.04-10.66-21.73-8.89-43.71,5.41-67.19,12.61-20.7,32.59-39.03,50.23-55.2,2.67-2.45,5.19-4.76,7.66-7.05,5.02-4.67,10.67-10.22,14.29-17.17,4.11-7.91,4.77-16.4,1.81-23.3-2.53-5.9-7.85-10.93-15.81-14.96-12.86-6.51-26.56-9.26-40.72-8.16-12.28,.95-25.26,4.84-38.59,11.55C22.51,97.74,1.22,116.48-18.24,134.95l-13.85,13.14,4.31,4.54,13.85-13.14c19.11-18.14,39.98-36.53,63.09-48.17,12.6-6.34,24.8-10.01,36.26-10.9,13-1.01,25.58,1.52,37.41,7.5,6.61,3.35,10.94,7.33,12.88,11.85,2.19,5.09,1.58,11.79-1.61,17.94-3.15,6.06-8.36,11.17-13,15.48-2.45,2.28-4.97,4.59-7.62,7.02-17.94,16.45-38.27,35.1-51.34,56.56-7.26,11.91-11.43,23.25-12.75,34.65-1.5,12.97,.87,25.95,7.06,38.56,1.2,2.45,2.59,4.73,4.14,6.84,6.58,8.93,16.1,14.64,26.56,15.68,14.11,1.39,26.57-6.64,37.57-13.72,2.08-1.34,4.05-2.61,6.01-3.81,.78-.48,1.57-.98,2.38-1.49,6.81-4.32,11.67-6.96,16.96-4.29,4.12,2.08,6.22,7.16,8.24,12.06,.49,1.18,.99,2.4,1.51,3.55,2.82,6.21,6.29,13.48,10.63,20.38,7.21,11.47,22.76,30.61,45.91,29.95,21.26-.61,42.57-9.56,61.49-17.71l1.31,3.07,7.37-3.13,2.13,5.02c.7,1.65,2.61,2.42,4.26,1.72l22.2-9.44,.23,.55c.27,.64,1.02,.94,1.66,.67l3.78-1.61c.64-.27,.94-1.02,.67-1.66l-.23-.55,1.79-.76,.23,.55c.27,.64,1.02,.94,1.66,.67l3.78-1.61c.64-.27,.94-1.02,.67-1.66l-.23-.55,3.15-1.34c1.65-.7,2.42-2.61,1.72-4.26l-.41-.97Z" fill="#a4acb6" opacity=".3"/><g><g><g><g><g><path d="M324.17,305.73c.27,.64,1.02,.94,1.66,.67l3.78-1.61c.64-.27,.94-1.02,.67-1.66l-.23-.55,3.15-1.34c1.65-.7,2.42-2.61,1.72-4.26l-9.26-21.79c-.7-1.65-2.61-2.42-4.26-1.72l-3.15,1.34-.23-.55c-.27-.64-1.02-.94-1.66-.67l-3.78,1.61c-.64,.27-.94,1.02-.67,1.66l.23,.55-1.79,.76-.23-.55c-.27-.64-1.02-.94-1.66-.67l-3.78,1.61c-.64,.27-.94,1.02-.67,1.66l.23,.55-22.2,9.44c-1.65,.7-2.42,2.61-1.72,4.26l9.26,21.79c.7,1.65,2.61,2.42,4.26,1.72l22.2-9.44,.23,.55c.27,.64,1.02,.94,1.66,.67l3.78-1.61c.64-.27,.94-1.02,.67-1.66l-.23-.55,1.79-.76,.23,.55Z" fill="#e4effc"/><g clip-path="#h"><polyline points="284.63 305.25 333.42 284.68 324.16 267.37 274.97 288.97 279.41 300.59 284.63 305.25" fill="#92afe4" opacity=".14"/></g></g><rect x="327.7" y="273.71" width="21.56" height="17.81" transform="translate(466.13 -139.45) rotate(66.97)" fill="#a4acb6"/><g><rect x="338.62" y="270.92" width="3.22" height="4.42" transform="translate(458.47 -146.84) rotate(66.97)" fill="#fff"/><rect x="340.72" y="275.86" width="3.22" height="4.42" transform="translate(464.3 -145.76) rotate(66.97)" fill="#fff"/><rect x="342.82" y="280.81" width="3.22" height="4.42" transform="translate(470.14 -144.69) rotate(66.97)" fill="#fff"/><rect x="344.93" y="285.76" width="3.22" height="4.42" transform="translate(475.96 -143.61) rotate(66.97)" fill="#fff"/></g></g><rect x="302.07" y="290.71" width="30.16" height="1.94" transform="translate(461.49 -114.31) rotate(66.97)" fill="#a4acb6"/></g><rect x="274.31" y="302.84" width="12.91" height="8.62" transform="translate(453.58 -71.4) rotate(66.97)" fill="#a4acb6"/></g><path d="M60.74,271.1c-1.55-2.11-2.94-4.39-4.14-6.84-6.19-12.61-8.56-25.58-7.06-38.56,1.32-11.4,5.49-22.74,12.75-34.65,13.07-21.46,33.4-40.11,51.34-56.56,2.66-2.44,5.17-4.74,7.62-7.02,4.63-4.31,9.84-9.41,13-15.48,3.2-6.14,3.8-12.85,1.61-17.94-1.94-4.52-6.28-8.5-12.88-11.85-11.82-5.99-24.41-8.51-37.41-7.5-11.46,.89-23.66,4.56-36.26,10.9-23.11,11.64-43.98,30.03-63.09,48.17l-13.85,13.14-4.31-4.54,13.85-13.14C1.37,110.77,22.66,92.02,46.5,80.02c13.33-6.71,26.32-10.6,38.59-11.55,14.16-1.1,27.86,1.65,40.72,8.16,7.95,4.03,13.27,9.06,15.81,14.96,2.96,6.9,2.3,15.39-1.81,23.3-3.61,6.95-9.27,12.51-14.29,17.17-2.47,2.3-4.99,4.61-7.66,7.05-17.63,16.17-37.62,34.5-50.23,55.2-14.31,23.48-16.08,45.46-5.41,67.19,5.33,10.86,14.94,17.98,25.7,19.04,11.93,1.18,22.93-5.9,33.57-12.75,2.02-1.3,4.11-2.65,6.14-3.89,.75-.46,1.51-.94,2.29-1.43,6.36-4.04,14.27-9.06,23.13-4.59,6.2,3.13,8.86,9.58,11.21,15.27,.49,1.18,.95,2.3,1.42,3.34,2.74,6.02,6.09,13.06,10.23,19.64,15.14,24.09,31.83,27.27,40.43,27.03,20.63-.59,41.92-9.76,60.7-17.85l2.72-1.17,2.47,5.75-2.72,1.17c-19.3,8.31-41.17,17.73-63,18.36-23.15,.66-38.7-18.48-45.91-29.95-4.33-6.89-7.8-14.17-10.63-20.38-.52-1.15-1.02-2.37-1.51-3.55-2.02-4.91-4.11-9.98-8.24-12.06-5.29-2.67-10.15-.04-16.96,4.29-.8,.51-1.6,1.01-2.38,1.49-1.97,1.2-3.93,2.47-6.01,3.81-11,7.08-23.47,15.11-37.57,13.72-10.47-1.04-19.98-6.75-26.57-15.68Z" fill="#dee5ef"/></g></g><g><path d="M791.94,346.17c-10.04,.06-23.14-6.69-29.77-21.9-8.18-18.76-3.92-38.95,.18-58.48,.31-1.49,.63-2.98,.93-4.46l.23-1.13c4.67-22.6,9.51-45.97,9.59-69.49,.05-14.35-2.81-29-8.05-41.25-6.27-14.65-15.79-25.45-27.53-31.24-11.02-5.43-23.38-5.96-33.09-1.41-8.64,4.05-14.5,11.52-16.94,21.6-4.03,16.67-.74,34.08,2.44,50.92,.41,2.16,.81,4.31,1.2,6.43,.21,1.15,.42,2.31,.64,3.48,4.45,24.27,9.5,51.79-6.7,72.04-4.96,6.2-10.51,9.43-16.97,9.87-16.89,1.16-36.17-17.14-51.67-31.84-6.04-5.73-11.26-10.68-15.68-13.89-27.96-20.28-52.97-26.85-76.36-20.02l-1.91-4.14-8.75,4.04-1.77-3.84c-.67-1.46-2.41-2.1-3.87-1.43l-22.38,10.33-.44-.94c-.35-.76-1.25-1.09-2-.74l-22.09,10.2c-.76,.35-1.09,1.25-.74,2l.44,.94-9.7,4.48c-1.46,.68-2.1,2.41-1.43,3.87l2.91,6.31-22.18,10.3c-1.78,.82-2.56,2.94-1.74,4.72,.82,1.78,2.94,2.56,4.72,1.74l22.19-10.28,2.95,6.39c.67,1.46,2.41,2.1,3.87,1.43l9.7-4.48,.44,.94c.35,.76,1.25,1.09,2,.74l22.09-10.2c.76-.35,1.09-1.25,.74-2l-.44-.94,22.38-10.33c1.46-.68,2.1-2.41,1.43-3.87l-1.33-2.87-.45-.97,8.75-4.04-2.14-4.63c22.34-6.34,46.38,.12,73.36,19.7,4.27,3.1,9.42,7.99,15.39,13.64,15.92,15.1,35.72,33.9,53.91,32.65,7.23-.5,13.65-4.19,19.08-10.98,17.04-21.31,11.87-49.53,7.3-74.43-.21-1.17-.43-2.33-.63-3.47-.39-2.13-.79-4.28-1.2-6.45-3.12-16.53-6.36-33.63-2.47-49.67,2.22-9.18,7.52-15.96,15.32-19.61,8.9-4.16,20.3-3.65,30.52,1.39,11.1,5.47,20.13,15.75,26.12,29.74,5.09,11.88,7.86,26.12,7.81,40.08-.08,23.23-4.88,46.45-9.53,68.9l-.23,1.13c-.31,1.48-.62,2.96-.93,4.45-4.21,19.99-8.56,40.65,0,60.28,2.85,6.53,7.45,12.46,12.96,16.69,6.01,4.61,12.77,7.03,19.55,6.99l-.02-2.97Z" fill="#a4acb6" opacity=".3"/><g><g><g><g><rect x="451.39" y="216.06" width="68.52" height="26.96" rx="2.92" ry="2.92" transform="translate(-51.49 224.67) rotate(-24.78)" fill="#e4effc"/><g clip-path="#i"><polygon points="517.81 215.18 450.5 245.47 445.03 228.67 468.92 210.85 514.67 198.3 517.81 215.18" fill="#92afe4" opacity=".14"/></g></g><rect x="465.64" y="216.44" width="27.35" height="32.05" rx="1.51" ry="1.51" transform="translate(-53.3 222.28) rotate(-24.78)" fill="#a4acb6"/><g><path d="M495.09,238.79h0c.25,.54,.01,1.19-.53,1.44l-19.2,8.86c-.54,.25-1.19,.01-1.44-.53h0c-.25-.54-.01-1.19,.53-1.44l19.2-8.86c.54-.25,1.19-.01,1.44,.53Z" fill="#e4effc"/><path d="M493.01,234.3h0c.25,.54,.01,1.19-.53,1.44l-19.2,8.86c-.54,.25-1.19,.01-1.44-.53h0c-.25-.54-.01-1.19,.53-1.44l19.2-8.86c.54-.25,1.19-.01,1.44,.53Z" fill="#e4effc"/><path d="M490.94,229.82h0c.25,.54,.01,1.19-.53,1.44l-19.2,8.86c-.54,.25-1.19,.01-1.44-.53h0c-.25-.54-.01-1.19,.53-1.44l19.2-8.86c.54-.25,1.19-.01,1.44,.53Z" fill="#e4effc"/><path d="M488.87,225.33h0c.25,.54,.01,1.19-.53,1.44l-19.2,8.86c-.54,.25-1.19,.01-1.44-.53h0c-.25-.54-.01-1.19,.53-1.44l19.2-8.86c.54-.25,1.19-.01,1.44,.53Z" fill="#e4effc"/><path d="M486.8,220.84h0c.25,.54,.01,1.19-.53,1.44l-19.2,8.86c-.54,.25-1.19,.01-1.44-.53h0c-.25-.54-.01-1.19,.53-1.44l19.2-8.86c.54-.25,1.19-.01,1.44,.53Z" fill="#e4effc"/><path d="M484.73,216.36h0c.25,.54,.01,1.19-.53,1.44l-19.2,8.86c-.54,.25-1.19,.01-1.44-.53h0c-.25-.54-.01-1.19,.53-1.44l19.2-8.86c.54-.25,1.19-.01,1.44,.53Z" fill="#e4effc"/></g><path d="M453.05,240.67l2.98,6.46-22.21,10.25c-1.78,.82-3.9,.04-4.72-1.74h0c-.82-1.78-.04-3.9,1.74-4.72l22.21-10.25Z" fill="#a4acb6"/></g><rect x="514.8" y="208.34" width="12.65" height="9.64" transform="translate(546 775.65) rotate(-114.78)" fill="#a4acb6"/></g><path d="M521.8,210.47c24.24-8.3,50.19-2.06,79.33,19.08,4.43,3.21,9.65,8.16,15.69,13.89,15.5,14.7,34.78,33,51.67,31.84,6.46-.44,12.01-3.67,16.97-9.87,16.2-20.26,11.15-47.77,6.7-72.04-.21-1.17-.43-2.33-.64-3.48-.38-2.12-.79-4.27-1.2-6.43-3.18-16.84-6.47-34.26-2.44-50.92,2.44-10.09,8.3-17.55,16.94-21.6,9.7-4.54,22.07-4.02,33.09,1.41,11.74,5.79,21.27,16.59,27.53,31.24,5.24,12.25,8.1,26.9,8.05,41.25-.08,23.53-4.91,46.9-9.59,69.49l-.23,1.13c-.31,1.48-.62,2.96-.93,4.46-4.11,19.53-8.36,39.72-.18,58.48,6.63,15.2,19.73,21.95,29.77,21.9l.02,2.97c-6.78,.04-13.54-2.38-19.55-6.99-5.51-4.23-10.11-10.15-12.96-16.69-8.56-19.63-4.21-40.29,0-60.28,.31-1.49,.63-2.97,.93-4.45l.23-1.13c4.65-22.45,9.45-45.68,9.53-68.9,.05-13.96-2.73-28.19-7.81-40.08-5.99-13.99-15.02-24.27-26.12-29.74-10.21-5.03-21.62-5.55-30.52-1.39-7.8,3.65-13.1,10.43-15.32,19.61-3.88,16.05-.65,33.14,2.47,49.67,.41,2.17,.82,4.32,1.2,6.45,.21,1.15,.42,2.31,.63,3.47,4.57,24.9,9.74,53.12-7.3,74.43-5.43,6.79-11.85,10.48-19.08,10.98-18.19,1.25-38-17.55-53.91-32.65-5.96-5.66-11.11-10.55-15.39-13.64-28.3-20.53-53.37-26.64-76.63-18.68l-.96-2.81Z" fill="#dee5ef"/></g></g><path d="M391.2,296.3c.28-.65,.66-1.22,1.15-1.71s1.06-.87,1.71-1.15c.65-.28,1.35-.42,2.1-.42s1.45,.14,2.1,.42c.65,.28,1.22,.66,1.71,1.15,.49,.49,.87,1.06,1.15,1.71,.28,.65,.42,1.35,.42,2.1s-.14,1.45-.42,2.1c-.28,.65-.66,1.22-1.15,1.71-.49,.49-1.06,.87-1.71,1.15-.65,.28-1.35,.42-2.1,.42s-1.45-.14-2.1-.42c-.65-.28-1.22-.66-1.71-1.15-.49-.49-.87-1.06-1.15-1.71-.28-.65-.42-1.35-.42-2.1s.14-1.45,.42-2.1Zm12.81-84.6c0-3.07-.59-5.36-1.76-6.9-1.17-1.53-3.2-2.3-6.09-2.3s-4.91,.77-6.09,2.3c-1.17,1.53-1.76,3.83-1.76,6.9v27.65l4.06,41.17v-.11c.18,1.37,.65,2.31,1.41,2.81,.76,.51,1.55,.76,2.38,.76s1.61-.24,2.35-.73c.74-.49,1.2-1.4,1.38-2.73l4.11-41.17v-27.65Z" fill="#a4acb6"/><rect x="146.09" y="109.43" width="500.16" height="337.61" fill="none"/><rect x="146.09" y="109.43" width="500.16" height="337.61" fill="none"/></g></svg>