<?xml version="1.0" encoding="UTF-8"?><svg xmlns="http://www.w3.org/2000/svg" viewBox="0 0 500.16 556.46"><g id="a"/><g id="b"/><g id="c"/><g id="d"/><g id="e"/><g id="f"/><g id="g"><g><path d="M41.25,375.41s1.3-48.3,12.95-78.73c11.66-30.43,33.02,20.31,44.03,12.42,11.01-7.89,22.95-87.85,63.6-104.53,40.65-16.68,43.98,19.98,63.68,36.62,19.7,16.63,46.55-83.08,81.22-83.08,24.76,0,37.65,34.63,45.83,52.99,6.01,13.49,9.64,28.34,18.53,40.4,12.99,17.62,27.58,11.72,44.11,2.1,6.86-3.99,14.94-7.34,22.57-5.13,6.73,1.95,11.54,7.79,15.36,13.66,13.61,20.94,18.76,44.81,18.86,69.5,.01,3.32,0,43.79-.13,43.79H41.25Z" fill="#dee5ef"/><g><path d="M355.42,382.71c0,1.58-44.51,2.86-99.41,2.86s-99.41-1.28-99.41-2.86,44.51-2.86,99.41-2.86,99.41,1.28,99.41,2.86Z" fill="#dee5ef"/><g><path d="M339.69,193.65H169.27c-7.84,0-14.2,7.15-14.2,15.97v121.04c0,8.82,6.36,15.97,14.2,15.97h61.81l23.4,28.79,20.6-28.79h64.61c7.84,0,14.2-7.15,14.2-15.97v-121.04c0-8.82-6.36-15.97-14.2-15.97Z" fill="#a4acb6"/><path d="M301.01,260.91h0c.1-.9,.17-1.81,.17-2.74,0-12.92-10.47-23.4-23.4-23.4s-22.96,7-23.36,19.58h-.08c-.4-12.58-10.69-19.58-23.36-19.58s-23.4,10.47-23.4,23.4c0,5.58,1.96,10.7,5.23,14.73h0l.02,.02c1.48,1.81,7.66,9.18,9.61,10.49l31.94,27.41,32.62-28.34c3.02-2.8,7.53-7.8,9.08-9.74l.04-.04,.02-.04c2.6-3.3,4.34-7.31,4.85-11.7v-.03Z" fill="#fff"/></g></g></g></g></svg>