<?xml version="1.0" encoding="UTF-8"?><svg xmlns="http://www.w3.org/2000/svg" viewBox="0 0 500.16 556.46"><g id="a"/><g id="b"/><g id="c"/><g id="d"/><g id="e"/><g id="f"/><g id="g"><path d="M469.81,182.35c-6.1,19.68-21.95,34.47-36.29,49.27-14.34,14.8-28.45,32.2-29.39,52.78-1.36,29.59,24.94,55.55,22.33,85.05-2.27,25.66-27.25,45.02-52.83,48.04-25.59,3.02-51.01-6.96-73.27-19.92-22.26-12.97-42.69-29.1-65.87-40.35-33.42-16.21-70.87-21.51-107.26-28.92-26.78-5.45-54.57-12.82-74.52-31.5-15.3-14.32-24.74-35.04-24.31-55.99,.44-20.95,11.14-41.7,28.65-53.22,27.13-17.86,63.04-11.48,94.3-2.67,31.26,8.81,64.89,19.38,95.35,8.1,30.51-11.29,49.4-41.51,75.97-60.29,29.05-20.53,69.79-24.7,104.71-22.38,32.83,2.18,51.53,42.63,42.44,71.99Z" fill="#dee5ef"/><g><g><rect x="139.19" y="165.53" width="218.25" height="183.92" rx="12.58" ry="12.58" fill="#f2f3f4"/><path d="M151.77,165.53h193.08c6.94,0,12.58,5.64,12.58,12.58v17.93H139.19v-17.93c0-6.94,5.64-12.58,12.58-12.58Z" fill="#a4acb6"/><path d="M160.25,219.39h176.31c2.79,0,5.05-2.26,5.05-5.05h0c0-2.79-2.26-5.05-5.05-5.05H160.25c-2.79,0-5.05,2.26-5.05,5.05h0c0,2.79,2.26,5.05,5.05,5.05Z" fill="#a4acb6"/><path d="M212.54,243.23h124.03c2.79,0,5.05-2.26,5.05-5.05h0c0-2.79-2.26-5.05-5.05-5.05h-124.03c-2.79,0-5.05,2.26-5.05,5.05h0c0,2.79,2.26,5.05,5.05,5.05Z" fill="#a4acb6"/><path d="M199.41,267.08h137.15c2.79,0,5.05-2.26,5.05-5.05h0c0-2.79-2.26-5.05-5.05-5.05H199.41c-2.79,0-5.05,2.26-5.05,5.05h0c0,2.79,2.26,5.05,5.05,5.05Z" fill="#a4acb6"/><path d="M193.11,290.93h143.45c2.79,0,5.05-2.26,5.05-5.05h0c0-2.79-2.26-5.05-5.05-5.05H193.11c-2.79,0-5.05,2.26-5.05,5.05h0c0,2.79,2.26,5.05,5.05,5.05Z" fill="#a4acb6"/><path d="M193.11,314.78h143.45c2.79,0,5.05-2.26,5.05-5.05h0c0-2.79-2.26-5.05-5.05-5.05H193.11c-2.79,0-5.05,2.26-5.05,5.05h0c0,2.79,2.26,5.05,5.05,5.05Z" fill="#a4acb6"/><rect x="212.4" y="328.53" width="129.21" height="10.1" rx="5.05" ry="5.05" transform="translate(554.02 667.15) rotate(180)" fill="#a4acb6"/><path d="M159.56,180.68c0,2.41-1.95,4.36-4.36,4.36s-4.36-1.95-4.36-4.36,1.95-4.36,4.36-4.36,4.36,1.95,4.36,4.36Z" fill="#ebeced"/><circle cx="171.15" cy="180.68" r="4.36" fill="#dee5ef"/><circle cx="188.06" cy="180.68" r="4.36" fill="#ebeced"/></g><circle cx="212.4" cy="280.82" r="50.96" transform="translate(-109.71 423.02) rotate(-76.72)" fill="#f2f3f4"/></g><g><g><path d="M196.71,302.3c11.06-14.96,25-8.82,28.54,0" fill="none" stroke="#121d30" stroke-miterlimit="10" stroke-width="1.45"/><g><path d="M194.4,270.99c0,3.9-1.75,7.07-3.9,7.07s-3.9-3.16-3.9-7.07,1.75-7.07,3.9-7.07,3.9,3.16,3.9,7.07Z" fill="#121d30"/><path d="M235.37,270.99c0,3.9-1.75,7.07-3.9,7.07s-3.9-3.16-3.9-7.07c0-1.7,.33-3.27,.89-4.49,.72-1.58,1.8-2.58,3.01-2.58,2.15,0,3.9,3.16,3.9,7.07Z" fill="#121d30"/></g><g><path d="M229.99,261.5c3.02-3.33,5.46-3.41,6.25,1.8l-6.25-1.8Z" fill="#121d30"/><path d="M190.61,256.18c-3.02-3.33-5.46-3.41-6.25,1.8l6.25-1.8Z" fill="#121d30"/></g></g><g><path d="M209.88,303.18c-1.86,1.86-1.86,4.88,0,6.74,1.86,1.86,4.88,1.86,6.74,0,1.86-1.86,1.86-4.88,0-6.74-1.86-1.86-4.88-1.86-6.74,0Z" fill="#fff" opacity=".11"/><path d="M107.45,380.91h0c5.3,5.3,13.88,5.3,19.18,0l39.54-39.54-19.18-19.18-39.54,39.54c-5.3,5.3-5.3,13.88,0,19.18Z" fill="#dee5ef"/><rect x="146.04" y="313.01" width="33.65" height="24.97" rx="5.35" ry="5.35" transform="translate(47.85 670.82) rotate(-135)" fill="#a4acb6"/><circle cx="211.79" cy="276.56" r="46.42" fill="#fff" opacity=".19"/><path d="M216.99,271.47c-6.93,6.93-6.93,18.18,0,25.11,6.93,6.93,18.18,6.93,25.11,0,6.93-6.93,6.93-18.18,0-25.11-6.93-6.93-18.18-6.93-25.11,0Z" fill="#fff" opacity=".11"/><path d="M190.45,255.22c-3.83,3.83-6.41,8.45-7.75,13.33l-8.45-4.62c1.89-5.62,5.06-10.9,9.53-15.38,15.47-15.47,40.55-15.47,56.02,0l-6.67,6.67c-11.79-11.79-30.9-11.79-42.68,0Z" fill="#fff" opacity=".11"/><path d="M172.62,237.39c-21.64,21.64-21.64,56.71,0,78.35,21.64,21.64,56.71,21.64,78.35,0,21.63-21.64,21.63-56.71,0-78.35-21.64-21.64-56.71-21.64-78.35,0Zm6.35,6.35c18.13-18.13,47.52-18.13,65.65,0,18.13,18.13,18.13,47.52,0,65.65-18.13,18.13-47.52,18.13-65.65,0-18.13-18.13-18.13-47.52,0-65.65Z" fill="#a4acb6"/><g opacity=".11"><path d="M182.55,284.03c1.29,5.08,3.92,9.9,7.9,13.88l-6.67,6.67c-5.83-5.83-9.46-13.02-10.89-20.55h9.66Z" fill="#fff"/></g></g></g></g></svg>