<?xml version="1.0" encoding="UTF-8"?><svg xmlns="http://www.w3.org/2000/svg" viewBox="0 0 500.16 556.46"><g id="a"/><g id="b"/><g id="c"/><g id="d"/><g id="e"/><g id="f"/><g id="g"><g><g><path d="M30.46,344.87c6.15-19.66,22.04-34.41,36.42-49.17,14.38-14.76,28.53-32.12,29.53-52.7,1.44-29.59-24.79-55.61-22.1-85.11,2.34-25.66,27.37-44.95,52.96-47.89,25.6-2.95,50.99,7.1,73.22,20.12,22.23,13.03,42.61,29.22,65.76,40.53,33.37,16.3,70.81,21.7,107.18,29.21,26.76,5.53,54.53,12.97,74.43,31.7,15.26,14.36,24.65,35.11,24.16,56.06-.49,20.95-11.26,41.67-28.79,53.14-27.18,17.78-63.07,11.31-94.31,2.41-31.24-8.9-64.84-19.56-95.32-8.36-30.54,11.21-49.51,41.38-76.13,60.08-29.11,20.46-69.86,24.51-104.77,22.09-32.82-2.27-51.42-42.77-42.25-72.11Z" fill="#dee5ef"/><path d="M417.4,367.72c10.44-4.21,20.89-8.42,31.33-12.64,3.44-1.39,7.11-2.8,10.77-2.17,6.79,1.17,10.58,9.27,9.34,16.05-1.24,6.78-6.06,12.29-11.06,17.04-6.52,6.19-13.79,11.78-22.13,15.13-8.34,3.35-17.89,4.29-26.35,1.23-6.32-2.28-17.79-10.6-16.05-18.6,1.72-7.91,17.82-13.48,24.15-16.04Z" fill="#dee5ef"/></g><g><rect x="157.54" y="197.33" width="187.68" height="187.68" rx="37.32" ry="37.32" fill="#a4acb6"/><g><path d="M231.56,326.51c16.14-21.82,36.47-12.87,41.63,0" fill="none" stroke="#121d30" stroke-miterlimit="10" stroke-width="2.12"/><g><path d="M228.18,280.84c0,5.7-2.55,10.31-5.69,10.31s-5.69-4.62-5.69-10.31,2.55-10.31,5.69-10.31,5.69,4.62,5.69,10.31Z" fill="#121d30"/><path d="M287.95,280.84c0,5.7-2.55,10.31-5.69,10.31s-5.69-4.62-5.69-10.31c0-2.49,.49-4.77,1.29-6.55,1.04-2.3,2.63-3.76,4.4-3.76,3.14,0,5.69,4.62,5.69,10.31Z" fill="#121d30"/></g><g><path d="M280.11,266.99c4.41-4.86,7.97-4.97,9.11,2.62l-9.11-2.62Z" fill="#121d30"/><path d="M222.65,259.23c-4.41-4.86-7.97-4.97-9.11,2.62l9.11-2.62Z" fill="#121d30"/></g></g><g><path d="M255.59,327.79c2.72,2.72,2.72,7.12,0,9.83-2.72,2.72-7.12,2.72-9.83,0-2.72-2.72-2.72-7.12,0-9.83,2.72-2.72,7.12-2.72,9.83,0Z" fill="#fff" opacity=".11"/><path d="M405.02,441.19h0c-7.73,7.73-20.25,7.73-27.98,0l-57.69-57.69,27.98-27.98,57.69,57.69c7.73,7.73,7.73,20.25,0,27.98Z" fill="#dee5ef"/><path d="M348.91,361.4l-23.68,23.68c-3.03,3.03-8,3.03-11.03,0l-14.73-14.73c-3.03-3.03-3.03-8,0-11.03l23.68-23.68c3.03-3.03,8-3.03,11.03,0l14.73,14.74c3.03,3.03,3.03,8,0,11.03Z" fill="#fff"/><circle cx="252.8" cy="288.97" r="67.72" fill="#fff" opacity=".19"/><path d="M245.21,281.54c10.11,10.12,10.11,26.51,0,36.63-10.11,10.11-26.51,10.11-36.63,0-10.11-10.11-10.11-26.51,0-36.63,10.11-10.11,26.51-10.11,36.63,0Z" fill="#fff" opacity=".11"/><path d="M283.93,257.84c5.59,5.59,9.36,12.32,11.31,19.44l12.33-6.74c-2.75-8.2-7.38-15.9-13.91-22.43-22.57-22.57-59.16-22.57-81.73,0l9.73,9.73c17.19-17.19,45.07-17.19,62.26,0Z" fill="#fff" opacity=".11"/><path d="M195.65,231.82c-31.56,31.56-31.56,82.73,0,114.3,31.56,31.56,82.73,31.56,114.3,0,31.56-31.56,31.56-82.73,0-114.3-31.56-31.56-82.73-31.56-114.3,0Zm105.04,105.04c-26.45,26.45-69.33,26.45-95.78,0-26.45-26.45-26.45-69.33,0-95.78,26.45-26.45,69.33-26.45,95.78,0,26.45,26.45,26.45,69.33,0,95.78Z" fill="#fff"/><g opacity=".11"><path d="M295.46,299.86c-1.89,7.42-5.72,14.44-11.53,20.25l9.73,9.73c8.5-8.5,13.8-18.99,15.89-29.98h-14.1Z" fill="#fff"/></g></g></g><g><path d="M122.89,315.85h0l-.22,.05-.17-.74,.21-.05h0c1.67-.37,3.3-.92,4.83-1.63l.33,.69c-1.59,.73-3.27,1.29-4.99,1.68Zm-5.7,.61c-1.84-.02-3.68-.24-5.47-.66l.18-.74c1.73,.41,3.51,.62,5.29,.64v.76Zm15.37-5.11l-.48-.59c1.4-1.07,2.67-2.3,3.79-3.66l.61,.48c-1.16,1.4-2.47,2.67-3.91,3.78Zm-26.02,2.61c-1.65-.8-3.2-1.78-4.62-2.92l.49-.59c1.38,1.1,2.88,2.05,4.48,2.83l-.35,.68Zm32.88-10.93l-.7-.33c.78-1.57,1.38-3.22,1.78-4.91l.76,.17c-.41,1.75-1.03,3.45-1.84,5.07Zm-41.34,4.15c-1.13-1.42-2.09-2.97-2.85-4.6l.7-.32c.74,1.58,1.67,3.08,2.76,4.45l-.61,.46Zm43.81-14.57h-.78c0-1.73-.2-3.47-.6-5.17l.76-.17c.41,1.76,.62,3.55,.62,5.34Zm-47.62,4.71l-.76,.16c-.38-1.76-.55-3.56-.52-5.35h.78c-.03,1.74,.14,3.49,.5,5.2Zm44.85-14.02c-.71-1.59-1.61-3.11-2.68-4.5l.62-.45c1.1,1.44,2.03,3.01,2.77,4.65l-.71,.3Zm-44.65,3.68l-.75-.18c.45-1.74,1.1-3.43,1.93-5.03l.69,.34c-.81,1.55-1.44,3.19-1.87,4.87Zm38.33-11.97c-1.36-1.13-2.84-2.11-4.42-2.91l.36-.67c1.63,.83,3.17,1.84,4.57,3l-.5,.58Zm-33.51,2.76l-.6-.49c1.18-1.38,2.52-2.63,3.98-3.71l.47,.6c-1.42,1.05-2.71,2.26-3.86,3.59Zm24.11-7.54c-1.72-.44-3.5-.69-5.28-.74l.02-.76c1.84,.05,3.67,.31,5.45,.76l-.2,.73Zm-15.67,1.29l-.32-.69c1.46-.64,3-1.14,4.58-1.5,.23-.05,.44-.1,.67-.14l.15,.74c-.22,.04-.45,.08-.64,.13-1.53,.34-3.02,.83-4.44,1.45Z" fill="#a4acb6"/><path d="M149.97,298.93c.91,3.88-1.58,7.73-5.55,8.62-3.97,.89-7.92-1.54-8.83-5.41-.91-3.88,1.58-7.73,5.55-8.62,3.97-.89,7.92,1.54,8.83,5.41Z" fill="#a4acb6"/><path d="M361.25,272.3c0,2.93-2.43,5.3-5.43,5.3s-5.43-2.37-5.43-5.3,2.43-5.3,5.43-5.3,5.43,2.37,5.43,5.3Z" fill="#a4acb6"/><ellipse cx="157.26" cy="171.21" rx="5.82" ry="5.68" fill="#a4acb6"/><path d="M167.74,188.64c-.46,0-.92-.03-1.38-.09l.1-.75c1.73,.22,3.51-.01,5.11-.69l.31,.7c-1.31,.55-2.7,.83-4.14,.83Zm-6.51-2.21c-1.48-1.15-2.62-2.67-3.29-4.39l.73-.27c.62,1.59,1.67,3,3.05,4.06l-.48,.59Zm15-2.02l-.63-.44c1.03-1.38,1.65-3.02,1.8-4.72l.77,.07c-.16,1.84-.84,3.6-1.95,5.1Zm-18.19-5.99h-.78c0-1.85,.51-3.66,1.48-5.24l.67,.39c-.9,1.46-1.37,3.14-1.37,4.86Zm18.44-4.12c-.76-1.54-1.94-2.85-3.4-3.79l.43-.63c1.58,1.02,2.85,2.43,3.67,4.09l-.7,.33Zm-13.34-4.22l-.37-.67c1.65-.87,3.57-1.29,5.43-1.21l-.03,.76c-1.72-.07-3.5,.32-5.03,1.12Z" fill="#a4acb6"/><path d="M367.73,292.59c-1.88-.14-3.67-.64-5.33-1.5l.36-.67c1.57,.81,3.26,1.29,5.03,1.42l-.06,.76Zm5.5-.7l-.26-.71c1.67-.57,3.18-1.46,4.48-2.64l.53,.55c-1.38,1.25-2.98,2.19-4.75,2.8Zm-15.11-4.27c-1.17-1.44-2.02-3.07-2.5-4.84l.75-.19c.45,1.67,1.25,3.2,2.35,4.56l-.61,.47Zm23.08-2.95l-.71-.3c.71-1.58,1.07-3.26,1.07-5h.78c0,1.85-.38,3.63-1.13,5.31Zm.28-6.67c-.19-1.72-.74-3.36-1.62-4.86l.67-.38c.94,1.59,1.52,3.33,1.72,5.15l-.77,.08Zm-25.39-.52l-.77-.11c.28-1.82,.93-3.52,1.94-5.08l.66,.41c-.95,1.47-1.56,3.08-1.83,4.79Zm20.29-8.15c-1.43-1.04-3.03-1.76-4.75-2.14l.17-.74c1.83,.41,3.53,1.18,5.04,2.27l-.46,.61Zm-14.82-.31l-.44-.63c1.56-1.04,3.29-1.73,5.13-2.06l.14,.74c-1.74,.32-3.37,.97-4.84,1.95Z" fill="#a4acb6"/></g></g></g></svg>