<svg width="22" height="23" viewBox="0 0 22 23" fill="none" xmlns="http://www.w3.org/2000/svg">
<path d="M11 10.2695C11.5523 10.2695 12 10.7172 12 11.2695V15.2695C12 15.8218 11.5523 16.2695 11 16.2695C10.4477 16.2695 10 15.8218 10 15.2695V11.2695C10 10.7172 10.4477 10.2695 11 10.2695Z" fill="#717D96"/>
<path d="M11 6.26953C10.4477 6.26953 10 6.71725 10 7.26953C10 7.82182 10.4477 8.26953 11 8.26953H11.01C11.5623 8.26953 12.01 7.82182 12.01 7.26953C12.01 6.71725 11.5623 6.26953 11.01 6.26953H11Z" fill="#717D96"/>
<path fill-rule="evenodd" clip-rule="evenodd" d="M0 11.2695C0 5.1944 4.92487 0.269531 11 0.269531C17.0751 0.269531 22 5.1944 22 11.2695C22 17.3447 17.0751 22.2695 11 22.2695C4.92487 22.2695 0 17.3447 0 11.2695ZM11 2.26953C6.02944 2.26953 2 6.29897 2 11.2695C2 16.2401 6.02944 20.2695 11 20.2695C15.9706 20.2695 20 16.2401 20 11.2695C20 6.29897 15.9706 2.26953 11 2.26953Z" fill="#717D96"/>
</svg>
