<svg width="20" height="25" viewBox="0 0 20 25" fill="none" xmlns="http://www.w3.org/2000/svg">
<path fill-rule="evenodd" clip-rule="evenodd" d="M10 6.26929C7.79086 6.26929 6 8.06015 6 10.2693C6 12.4784 7.79086 14.2693 10 14.2693C12.2091 14.2693 14 12.4784 14 10.2693C14 8.06015 12.2091 6.26929 10 6.26929ZM8 10.2693C8 9.16472 8.89543 8.26929 10 8.26929C11.1046 8.26929 12 9.16472 12 10.2693C12 11.3739 11.1046 12.2693 10 12.2693C8.89543 12.2693 8 11.3739 8 10.2693Z" fill="#717D96"/>
<path fill-rule="evenodd" clip-rule="evenodd" d="M9.44476 24.101C9.44505 24.1012 9.4453 24.1013 10 23.2693L9.44476 24.101C9.78066 24.3249 10.2188 24.3253 10.5547 24.1013L10 23.2693C10.5547 24.1013 10.5544 24.1015 10.5547 24.1013L10.5581 24.0991L10.5648 24.0946L10.5877 24.0791C10.6072 24.0659 10.6349 24.0469 10.6704 24.0223C10.7415 23.9731 10.8435 23.9014 10.9722 23.8085C11.2295 23.6227 11.5936 23.3515 12.0292 23.0047C12.8987 22.3123 14.0606 21.3121 15.226 20.082C17.5157 17.665 20 14.1712 20 10.2693C20 7.61712 18.9464 5.07358 17.0711 3.19822C15.1957 1.32286 12.6522 0.269287 10 0.269287C7.34784 0.269287 4.8043 1.32286 2.92893 3.19822C1.05357 5.07358 0 7.61712 0 10.2693C0 14.1712 2.48426 17.665 4.77405 20.082C5.93939 21.3121 7.10133 22.3123 7.97082 23.0047C8.40636 23.3515 8.77055 23.6227 9.02779 23.8085C9.15646 23.9014 9.25853 23.9731 9.32956 24.0223C9.36508 24.0469 9.39285 24.0659 9.41232 24.0791L9.43524 24.0946L9.4419 24.0991L9.44476 24.101ZM4.34315 4.61243C5.84344 3.11214 7.87827 2.26929 10 2.26929C12.1217 2.26929 14.1566 3.11214 15.6569 4.61243C17.1571 6.11272 18 8.14756 18 10.2693C18 13.3673 15.9843 16.3735 13.774 18.7065C12.6894 19.8515 11.6013 20.7888 10.7833 21.4401C10.4789 21.6826 10.213 21.8845 10 22.0419C9.78702 21.8845 9.52111 21.6826 9.21668 21.4401C8.39867 20.7888 7.31061 19.8515 6.22595 18.7065C4.01574 16.3735 2 13.3673 2 10.2693C2 8.14756 2.84285 6.11272 4.34315 4.61243Z" fill="#717D96"/>
</svg>
