<svg width="74" height="74" viewBox="0 0 74 74" fill="none" xmlns="http://www.w3.org/2000/svg">
<rect width="74" height="74" rx="37" fill="white"/>
<path fill-rule="evenodd" clip-rule="evenodd" d="M22.7476 19.7197C24.9283 17.5459 28.5846 18.1538 30.1284 20.7186L30.1392 20.7365L33.6979 26.8181C34.7459 28.6462 34.4815 30.9964 32.918 32.5549L32.3278 33.1433C34.4177 36.4213 37.5925 39.6644 40.8017 41.6094L41.3884 41.0895C42.9519 39.5652 45.2857 39.3147 47.1045 40.3507L47.1176 40.3582L53.1398 43.86C54.6309 44.5738 55.4156 45.9529 55.5762 47.3299C55.7367 48.7055 55.2964 50.1987 54.2255 51.2662L52.1962 53.289C50.0893 55.3892 46.6595 56.3187 43.7326 54.9925C39.88 53.4181 34.1017 50.4472 28.8354 45.1976C23.5554 39.9344 20.5791 33.9947 19.0154 30.3612C17.6815 27.4525 18.6007 24.042 20.6929 21.9365L22.7007 19.7683C22.716 19.7518 22.7316 19.7356 22.7476 19.7197ZM25.1575 22.0857L23.1567 24.2464C23.1414 24.2629 23.1258 24.2791 23.1098 24.295C21.8432 25.5576 21.4218 27.5134 22.0966 28.9709C22.1031 28.9849 22.1094 28.999 22.1155 29.0132C23.5981 32.4615 26.3702 37.9724 31.227 42.8137C36.0923 47.6636 41.4575 50.4222 45.0456 51.8854C45.0686 51.8948 45.0914 51.9047 45.114 51.915C46.5761 52.5877 48.5381 52.1676 49.8047 50.9051L51.834 48.8822C52.116 48.6011 52.2676 48.1557 52.2167 47.7193C52.169 47.3106 51.9664 47.0306 51.6536 46.8888C51.6015 46.8652 51.5507 46.839 51.5013 46.8103L45.4212 43.2749C44.8884 42.9745 44.2051 43.0492 43.7409 43.512C43.7175 43.5353 43.6934 43.558 43.6686 43.5799L42.1466 44.9284C41.6225 45.3929 40.8652 45.4866 40.243 45.1641C35.6803 42.7991 31.2283 38.1601 28.7248 33.7037C28.3549 33.0452 28.4691 32.2218 29.0045 31.6881L30.5265 30.171C30.9908 29.7082 31.0657 29.0271 30.7643 28.496L27.2239 22.446C26.7419 21.6555 25.6874 21.5834 25.1575 22.0857Z" fill="#00A1BD"/>
<path fill-rule="evenodd" clip-rule="evenodd" d="M44.1987 29.8011C43.3505 28.9529 42.0403 28.6488 41.1139 28.9577C40.1499 29.279 39.1079 28.758 38.7866 27.794C38.4652 26.83 38.9862 25.7881 39.9502 25.4667C42.3356 24.6716 45.0731 25.4715 46.8007 27.1991C48.5284 28.9268 49.3283 31.6643 48.5331 34.0496C48.2118 35.0136 47.1698 35.5346 46.2058 35.2133C45.2418 34.892 44.7209 33.85 45.0422 32.886C45.351 31.9595 45.047 30.6493 44.1987 29.8011Z" fill="#00A1BD"/>
<path fill-rule="evenodd" clip-rule="evenodd" d="M48.7558 25.244C45.7546 22.2427 41.3919 21.1865 37.4828 22.2389C36.5626 22.4867 35.6157 21.9415 35.368 21.0213C35.1202 20.1011 35.6654 19.1542 36.5856 18.9065C41.6495 17.5431 47.2951 18.9027 51.1962 22.8037C55.0972 26.7047 56.4567 32.3503 55.0934 37.4142C54.8456 38.3344 53.8988 38.8796 52.9785 38.6318C52.0583 38.3841 51.5131 37.4372 51.7609 36.517C52.8133 32.6079 51.7571 28.2453 48.7558 25.244Z" fill="#00A1BD"/>
</svg>
