<svg width="15" height="16" viewBox="0 0 15 16" fill="none" xmlns="http://www.w3.org/2000/svg">
<path fill-rule="evenodd" clip-rule="evenodd" d="M1.12508 0.916626C0.73388 0.916626 0.416748 1.23376 0.416748 1.62496V6.58329C0.416748 6.97449 0.73388 7.29163 1.12508 7.29163H6.08341C6.47462 7.29163 6.79175 6.97449 6.79175 6.58329V1.62496C6.79175 1.23376 6.47462 0.916626 6.08341 0.916626H1.12508ZM1.83341 5.87496V2.33329H5.37508V5.87496H1.83341Z" fill="#717D96"/>
<path fill-rule="evenodd" clip-rule="evenodd" d="M8.91675 0.916626C8.52555 0.916626 8.20841 1.23376 8.20841 1.62496V6.58329C8.20841 6.97449 8.52555 7.29163 8.91675 7.29163H13.8751C14.2663 7.29163 14.5834 6.97449 14.5834 6.58329V1.62496C14.5834 1.23376 14.2663 0.916626 13.8751 0.916626H8.91675ZM9.62508 5.87496V2.33329H13.1667V5.87496H9.62508Z" fill="#717D96"/>
<path fill-rule="evenodd" clip-rule="evenodd" d="M8.20841 9.41663C8.20841 9.02542 8.52555 8.70829 8.91675 8.70829H13.8751C14.2663 8.70829 14.5834 9.02542 14.5834 9.41663V14.375C14.5834 14.7662 14.2663 15.0833 13.8751 15.0833H8.91675C8.52555 15.0833 8.20841 14.7662 8.20841 14.375V9.41663ZM9.62508 10.125V13.6666H13.1667V10.125H9.62508Z" fill="#717D96"/>
<path fill-rule="evenodd" clip-rule="evenodd" d="M1.12508 8.70829C0.73388 8.70829 0.416748 9.02542 0.416748 9.41663V14.375C0.416748 14.7662 0.73388 15.0833 1.12508 15.0833H6.08341C6.47462 15.0833 6.79175 14.7662 6.79175 14.375V9.41663C6.79175 9.02542 6.47462 8.70829 6.08341 8.70829H1.12508ZM1.83341 13.6666V10.125H5.37508V13.6666H1.83341Z" fill="#717D96"/>
</svg>
