<svg width="16" height="16" viewBox="0 0 16 16" fill="none" xmlns="http://www.w3.org/2000/svg">
<path d="M8.6665 4.00002C8.6665 3.63183 8.36803 3.33335 7.99984 3.33335C7.63165 3.33335 7.33317 3.63183 7.33317 4.00002V8.00002C7.33317 8.25253 7.47584 8.48338 7.70169 8.5963L10.3684 9.92964C10.6977 10.0943 11.0981 9.96081 11.2628 9.6315C11.4274 9.30218 11.294 8.90173 10.9646 8.73707L8.6665 7.588V4.00002Z" fill="#232323"/>
<path fill-rule="evenodd" clip-rule="evenodd" d="M7.99984 0.666687C3.94975 0.666687 0.666504 3.94993 0.666504 8.00002C0.666504 12.0501 3.94975 15.3334 7.99984 15.3334C12.0499 15.3334 15.3332 12.0501 15.3332 8.00002C15.3332 3.94993 12.0499 0.666687 7.99984 0.666687ZM1.99984 8.00002C1.99984 4.68631 4.68613 2.00002 7.99984 2.00002C11.3135 2.00002 13.9998 4.68631 13.9998 8.00002C13.9998 11.3137 11.3135 14 7.99984 14C4.68613 14 1.99984 11.3137 1.99984 8.00002Z" fill="#232323"/>
</svg>
