<svg width="20" height="21" viewBox="0 0 20 21" fill="none" xmlns="http://www.w3.org/2000/svg">
<path fill-rule="evenodd" clip-rule="evenodd" d="M3 0.269531C2.20435 0.269531 1.44129 0.585602 0.87868 1.14821C0.31607 1.71082 0 2.47388 0 3.26953V19.2695C0 19.674 0.243642 20.0386 0.617317 20.1934C0.990991 20.3482 1.42111 20.2626 1.70711 19.9766L5.41421 16.2695H17C17.7957 16.2695 18.5587 15.9535 19.1213 15.3909C19.6839 14.8282 20 14.0652 20 13.2695V3.26953C20 2.47388 19.6839 1.71082 19.1213 1.14821C18.5587 0.585602 17.7957 0.269531 17 0.269531H3ZM2.29289 2.56242C2.48043 2.37489 2.73478 2.26953 3 2.26953H17C17.2652 2.26953 17.5196 2.37489 17.7071 2.56242C17.8946 2.74996 18 3.00432 18 3.26953V13.2695C18 13.5347 17.8946 13.7891 17.7071 13.9766C17.5196 14.1642 17.2652 14.2695 17 14.2695H5C4.73478 14.2695 4.48043 14.3749 4.29289 14.5624L2 16.8553V3.26953C2 3.00431 2.10536 2.74996 2.29289 2.56242Z" fill="#717D96"/>
</svg>
