<svg width="12" height="12" viewBox="0 0 12 12" fill="none" xmlns="http://www.w3.org/2000/svg">
<path fill-rule="evenodd" clip-rule="evenodd" d="M6.68191 1.08304C6.59355 0.914426 6.41124 0.807678 6.21161 0.807678C6.01199 0.807678 5.82967 0.914426 5.74131 1.08304L4.2426 3.94305L0.891018 4.40451C0.693522 4.4317 0.52953 4.56213 0.467968 4.74097C0.406407 4.91982 0.457948 5.11607 0.600929 5.24725L3.02568 7.4719L2.45344 10.6147C2.41969 10.8001 2.50059 10.9874 2.66211 11.098C2.82364 11.2085 3.03778 11.223 3.21448 11.1355L6.21161 9.65083L9.20875 11.1355C9.38545 11.223 9.59959 11.2085 9.76112 11.098C9.92264 10.9874 10.0035 10.8001 9.96979 10.6147L9.39754 7.4719L11.8223 5.24725C11.9653 5.11607 12.0168 4.91982 11.9553 4.74097C11.8937 4.56213 11.7297 4.4317 11.5322 4.40451L8.18063 3.94305L6.68191 1.08304Z" fill="#EEF1F9"/>
</svg>
