<svg width="16" height="16" viewBox="0 0 16 16" fill="none" xmlns="http://www.w3.org/2000/svg">
<path fill-rule="evenodd" clip-rule="evenodd" d="M8.00008 15.3331C12.0502 15.3331 15.3334 12.0498 15.3334 7.99976C15.3334 3.94967 12.0502 0.666428 8.00008 0.666428C3.94999 0.666428 0.666748 3.94967 0.666748 7.99976C0.666748 12.0498 3.94999 15.3331 8.00008 15.3331ZM6.48389 2.19298C4.11262 2.81041 2.31209 4.84192 2.0367 7.33309H4.70014C4.84961 5.49097 5.46615 3.72271 6.48389 2.19298ZM9.51627 2.19298C10.534 3.72271 11.1505 5.49097 11.3 7.33309H13.9635C13.6881 4.84192 11.8875 2.81041 9.51627 2.19298ZM9.96169 7.33309C9.79422 5.52431 9.1132 3.80105 8.00008 2.36696C6.88696 3.80105 6.20594 5.52431 6.03848 7.33309H9.96169ZM6.03848 8.66643H9.96169C9.79422 10.4752 9.1132 12.1985 8.00008 13.6326C6.88696 12.1985 6.20594 10.4752 6.03848 8.66643ZM4.70014 8.66643H2.0367C2.31209 11.1576 4.11262 13.1891 6.48389 13.8065C5.46615 12.2768 4.84961 10.5086 4.70014 8.66643ZM9.51627 13.8065C10.534 12.2768 11.1505 10.5086 11.3 8.66643H13.9635C13.6881 11.1576 11.8875 13.1891 9.51627 13.8065Z" fill="#00A1BD"/>
</svg>
