<svg width="9" height="16" viewBox="0 0 9 16" fill="none" xmlns="http://www.w3.org/2000/svg">
<path fill-rule="evenodd" clip-rule="evenodd" d="M6 0.666428C4.93913 0.666428 3.92172 1.08785 3.17157 1.838C2.42143 2.58815 2 3.60556 2 4.66643V5.99976H0.666667C0.298477 5.99976 0 6.29824 0 6.66643V9.33309C0 9.70128 0.298477 9.99976 0.666667 9.99976H2V14.6664C2 15.0346 2.29848 15.3331 2.66667 15.3331H5.33333C5.70152 15.3331 6 15.0346 6 14.6664V9.99976H7.33333C7.63925 9.99976 7.9059 9.79156 7.98009 9.49478L8.64676 6.82812C8.69655 6.62896 8.65181 6.41796 8.52547 6.25615C8.39913 6.09434 8.20529 5.99976 8 5.99976H6V4.66643H8C8.36819 4.66643 8.66667 4.36795 8.66667 3.99976V1.33309C8.66667 0.964904 8.36819 0.666428 8 0.666428H6ZM4.11438 2.78081C4.61448 2.28071 5.29276 1.99976 6 1.99976H7.33333V3.33309H6C5.64638 3.33309 5.30724 3.47357 5.05719 3.72362C4.80714 3.97367 4.66667 4.3128 4.66667 4.66643V6.66643C4.66667 7.03462 4.96514 7.33309 5.33333 7.33309H7.14615L6.81282 8.66643H5.33333C4.96514 8.66643 4.66667 8.9649 4.66667 9.33309V13.9998H3.33333V9.33309C3.33333 8.9649 3.03486 8.66643 2.66667 8.66643H1.33333V7.33309H2.66667C3.03486 7.33309 3.33333 7.03462 3.33333 6.66643V4.66643C3.33333 3.95918 3.61428 3.28091 4.11438 2.78081Z" fill="#00A1BD"/>
</svg>
