<svg width="24" height="25" viewBox="0 0 24 25" fill="none" xmlns="http://www.w3.org/2000/svg">
<path fill-rule="evenodd" clip-rule="evenodd" d="M10.5133 5.6319C8.69389 3.81248 5.74403 3.81248 3.92462 5.6319C2.1052 7.45131 2.10521 10.4012 3.92462 12.2206L4.70433 13.0003C4.71707 13.013 4.72944 13.0261 4.74142 13.0394L12.0001 20.2981L19.2585 13.0397C19.2706 13.0263 19.283 13.0132 19.2959 13.0003L20.0756 12.2206C21.895 10.4012 21.895 7.45131 20.0756 5.6319C18.2562 3.81248 15.3063 3.81248 13.4869 5.6319L12.7072 6.4116C12.3167 6.80213 11.6835 6.80213 11.293 6.4116L10.5133 5.6319ZM20.7486 14.3761C20.7365 14.3895 20.724 14.4026 20.7112 14.4155L12.7083 22.4184C12.5207 22.606 12.2662 22.7114 12.0009 22.7113C12.0007 22.7113 12.0012 22.7113 12.0009 22.7113C12.0007 22.7113 11.9996 22.7113 11.9993 22.7113C11.734 22.7114 11.4796 22.606 11.292 22.4184L3.28909 14.4155C3.27619 14.4026 3.26372 14.3895 3.25167 14.3761L2.51041 13.6348C-0.0900556 11.0343 -0.0900594 6.81815 2.51041 4.21768C5.11087 1.61722 9.32705 1.61722 11.9275 4.21768L12.0001 4.29028L12.0727 4.21768C14.6732 1.61722 18.8894 1.61722 21.4898 4.21768C24.0903 6.81815 24.0903 11.0343 21.4898 13.6348L20.7486 14.3761Z" fill="#717D96"/>
</svg>
