<svg width="12" height="11" viewBox="0 0 12 11" fill="none" xmlns="http://www.w3.org/2000/svg">
<path fill-rule="evenodd" clip-rule="evenodd" d="M10.3743 6.05339C10.3683 6.0601 10.362 6.06667 10.3556 6.07312L6.35413 10.0746C6.26033 10.1684 6.13311 10.221 6.00046 10.221C5.86781 10.221 5.73979 10.1684 5.64599 10.0746L1.64454 6.07312C1.63809 6.06667 1.63186 6.06009 1.62584 6.05339L1.2552 5.68276C-0.0450278 4.38252 -0.0450297 2.27443 1.2552 0.974198C2.55543 -0.326035 4.66353 -0.326035 5.96376 0.974198L6.00006 1.0105L6.03636 0.974198C7.33659 -0.326035 9.44468 -0.326035 10.7449 0.974198C12.0451 2.27443 12.0451 4.38252 10.7449 5.68276L10.3743 6.05339Z" fill="#00A1BD"/>
</svg>
