<svg width="40" height="40" viewBox="0 0 40 40" fill="none" xmlns="http://www.w3.org/2000/svg">
<g clip-path="url(#clip0_239_31426)">
<rect width="40" height="40" rx="3" fill="#00A1BD"/>
<path d="M13.3333 11.6667C13.7936 11.6667 14.1667 12.0398 14.1667 12.5V18.3333C14.1667 18.7936 13.7936 19.1667 13.3333 19.1667C12.8731 19.1667 12.5 18.7936 12.5 18.3333V12.5C12.5 12.0398 12.8731 11.6667 13.3333 11.6667Z" fill="white"/>
<path d="M14.1667 22.5H15.8333C16.2936 22.5 16.6667 22.1269 16.6667 21.6667C16.6667 21.2064 16.2936 20.8333 15.8333 20.8333H10.8333C10.3731 20.8333 10 21.2064 10 21.6667C10 22.1269 10.3731 22.5 10.8333 22.5H12.5V27.5C12.5 27.9602 12.8731 28.3333 13.3333 28.3333C13.7936 28.3333 14.1667 27.9602 14.1667 27.5V22.5Z" fill="white"/>
<path d="M20.8333 20C20.8333 19.5398 20.4602 19.1667 20 19.1667C19.5398 19.1667 19.1667 19.5398 19.1667 20V27.5C19.1667 27.9602 19.5398 28.3333 20 28.3333C20.4602 28.3333 20.8333 27.9602 20.8333 27.5V20Z" fill="white"/>
<path d="M20 11.6667C20.4602 11.6667 20.8333 12.0398 20.8333 12.5V15.8333H22.5C22.9602 15.8333 23.3333 16.2064 23.3333 16.6667C23.3333 17.1269 22.9602 17.5 22.5 17.5H17.5C17.0398 17.5 16.6667 17.1269 16.6667 16.6667C16.6667 16.2064 17.0398 15.8333 17.5 15.8333H19.1667V12.5C19.1667 12.0398 19.5398 11.6667 20 11.6667Z" fill="white"/>
<path d="M29.1667 22.5C29.6269 22.5 30 22.8731 30 23.3333C30 23.7936 29.6269 24.1667 29.1667 24.1667H27.5V27.5C27.5 27.9602 27.1269 28.3333 26.6667 28.3333C26.2064 28.3333 25.8333 27.9602 25.8333 27.5V24.1667H24.1667C23.7064 24.1667 23.3333 23.7936 23.3333 23.3333C23.3333 22.8731 23.7064 22.5 24.1667 22.5H29.1667Z" fill="white"/>
<path d="M26.6667 11.6667C27.1269 11.6667 27.5 12.0398 27.5 12.5V20C27.5 20.4602 27.1269 20.8333 26.6667 20.8333C26.2064 20.8333 25.8333 20.4602 25.8333 20V12.5C25.8333 12.0398 26.2064 11.6667 26.6667 11.6667Z" fill="white"/>
</g>
<defs>
<clipPath id="clip0_239_31426">
<rect width="40" height="40" rx="3" fill="white"/>
</clipPath>
</defs>
</svg>
