<svg width="10" height="10" viewBox="0 0 10 10" fill="none" xmlns="http://www.w3.org/2000/svg">
<path d="M9.7742 4.27896C10.1078 3.98941 9.92954 3.44114 9.48943 3.40319L7.0715 3.19469C6.88708 3.17879 6.72653 3.06229 6.6542 2.8919L5.71028 0.668124C5.53781 0.261823 4.96191 0.261979 4.78966 0.668373L3.84525 2.89665C3.77288 3.0674 3.61195 3.18407 3.42716 3.19975L1.01382 3.40449C0.57311 3.44188 0.394406 3.99101 0.728705 4.28062L2.56241 5.86915C2.70269 5.99068 2.76411 6.17991 2.72195 6.36066L2.17138 8.7207C2.0709 9.15142 2.53802 9.49091 2.91667 9.26236L4.99131 8.0102C5.1502 7.9143 5.34915 7.9143 5.50804 8.0102L7.58458 9.26352C7.96296 9.49189 8.42985 9.15304 8.33003 8.72251L7.78225 6.36C7.74042 6.17959 7.80173 5.99084 7.9416 5.86945L9.7742 4.27896ZM5.49093 6.98724C5.34118 6.89668 5.24967 6.73441 5.24967 6.5594V2.29665C5.24967 2.18765 5.39928 2.15729 5.44177 2.25767L6.05859 3.71496C6.13078 3.88551 6.29132 4.00219 6.47582 4.01819L8.31314 4.1776C8.40115 4.18523 8.43676 4.29488 8.37003 4.35276L6.97798 5.56032C6.83782 5.68191 6.77652 5.8711 6.81873 6.05178L7.23775 7.84517C7.25788 7.93136 7.16436 7.99929 7.08862 7.95349L5.49093 6.98724Z" fill="#00A1BD"/>
</svg>
