<svg width="16" height="16" viewBox="0 0 16 16" fill="none" xmlns="http://www.w3.org/2000/svg">
<g clip-path="url(#clip0_342_33379)">
<path fill-rule="evenodd" clip-rule="evenodd" d="M6.49354 5.01217C7.11587 4.68925 7.82418 4.57079 8.51772 4.67364C9.22515 4.77854 9.88009 5.10819 10.3858 5.61389C10.8915 6.11959 11.2211 6.77453 11.326 7.48197C11.4289 8.17551 11.3104 8.88382 10.9875 9.50615C10.6646 10.1285 10.1537 10.6331 9.5274 10.9484C8.90114 11.2636 8.19142 11.3733 7.4992 11.2619C6.80699 11.1505 6.16752 10.8237 5.67175 10.3279C5.17598 9.83217 4.84916 9.1927 4.73777 8.50048C4.62638 7.80826 4.7361 7.09855 5.05132 6.47228C5.36654 5.84601 5.8712 5.33509 6.49354 5.01217ZM8.32214 5.99255C7.90601 5.93084 7.48103 6.00192 7.10763 6.19567C6.73423 6.38942 6.43143 6.69597 6.2423 7.07173C6.05317 7.44749 5.98734 7.87332 6.05417 8.28865C6.121 8.70398 6.3171 9.08767 6.61456 9.38513C6.91202 9.68259 7.2957 9.87868 7.71103 9.94551C8.12636 10.0123 8.55219 9.94651 8.92795 9.75738C9.30371 9.56825 9.61027 9.26545 9.80402 8.89205C9.99777 8.51865 10.0688 8.09367 10.0071 7.67755C9.94419 7.25309 9.74641 6.86012 9.44298 6.5567C9.13956 6.25328 8.7466 6.05549 8.32214 5.99255Z" fill="#00A1BD"/>
<path d="M11.6666 3.66643C11.2984 3.66643 11 3.9649 11 4.33309C11 4.70128 11.2984 4.99976 11.6666 4.99976H11.6733C12.0415 4.99976 12.34 4.70128 12.34 4.33309C12.34 3.9649 12.0415 3.66643 11.6733 3.66643H11.6666Z" fill="#00A1BD"/>
<path fill-rule="evenodd" clip-rule="evenodd" d="M0.666626 4.66643C0.666626 2.45729 2.45749 0.666428 4.66663 0.666428H11.3333C13.5424 0.666428 15.3333 2.45729 15.3333 4.66643V11.3331C15.3333 13.5422 13.5424 15.3331 11.3333 15.3331H4.66663C2.45749 15.3331 0.666626 13.5422 0.666626 11.3331V4.66643ZM4.66663 1.99976C3.19387 1.99976 1.99996 3.19367 1.99996 4.66643V11.3331C1.99996 12.8059 3.19387 13.9998 4.66663 13.9998H11.3333C12.8061 13.9998 14 12.8059 14 11.3331V4.66643C14 3.19367 12.8061 1.99976 11.3333 1.99976H4.66663Z" fill="#00A1BD"/>
</g>
<defs>
<clipPath id="clip0_342_33379">
<rect width="16" height="16" fill="white" transform="translate(0 -0.000244141)"/>
</clipPath>
</defs>
</svg>
