<svg width="20" height="20" viewBox="0 0 20 20" fill="none" xmlns="http://www.w3.org/2000/svg">
<path d="M1.66502 19.9263H-0.00170898V13.2594C-0.00016659 11.2717 0.789732 9.36578 2.19471 7.95971C3.59968 6.55364 5.50501 5.76226 7.49272 5.75917L11.5287 5.63083V0.285645L19.2681 8.03008C19.7368 8.49892 20.0001 9.13471 20.0001 9.79764C20.0001 10.4606 19.7368 11.0964 19.2681 11.5652L11.5304 19.3096V13.9645L7.49272 14.0928C5.94699 14.0957 4.46547 14.7114 3.37302 15.8049C2.28056 16.8985 1.66634 18.3806 1.66502 19.9263ZM7.49855 12.4261L13.2004 12.2977V15.2862L18.0956 10.3868C18.2518 10.2306 18.3396 10.0186 18.3396 9.79764C18.3396 9.57666 18.2518 9.36473 18.0956 9.20846L13.1962 4.30912V7.29756L7.49272 7.42589C5.94597 7.42722 4.46296 8.04225 3.36925 9.13596C2.27553 10.2297 1.66051 11.7127 1.65918 13.2594V15.217C2.36097 14.3452 3.24935 13.6419 4.25893 13.1589C5.2685 12.6759 6.37355 12.4255 7.49272 12.4261H7.49855Z" fill="#717D96"/>
</svg>
