<svg width="26" height="26" viewBox="0 0 26 26" fill="none" xmlns="http://www.w3.org/2000/svg">
<rect width="26" height="26" rx="13" fill="#EEF1F9"/>
<path fill-rule="evenodd" clip-rule="evenodd" d="M7.66675 5.66666C6.56218 5.66666 5.66675 6.56209 5.66675 7.66666C5.66675 8.77123 6.56218 9.66666 7.66675 9.66666C8.77132 9.66666 9.66675 8.77123 9.66675 7.66666C9.66675 6.56209 8.77132 5.66666 7.66675 5.66666ZM7.00008 7.66666C7.00008 7.29847 7.29856 7 7.66675 7C8.03494 7 8.33341 7.29847 8.33341 7.66666C8.33341 8.03485 8.03494 8.33333 7.66675 8.33333C7.29856 8.33333 7.00008 8.03485 7.00008 7.66666Z" fill="#00A1BD"/>
<path fill-rule="evenodd" clip-rule="evenodd" d="M15.6667 9.66666C14.4291 9.66666 13.2421 10.1583 12.3669 11.0335C11.4917 11.9087 11.0001 13.0957 11.0001 14.3333V19C11.0001 19.3682 11.2986 19.6667 11.6667 19.6667H14.3334C14.7016 19.6667 15.0001 19.3682 15.0001 19V14.3333C15.0001 14.1565 15.0703 13.987 15.1953 13.8619C15.3204 13.7369 15.4899 13.6667 15.6667 13.6667C15.8436 13.6667 16.0131 13.7369 16.1382 13.8619C16.2632 13.987 16.3334 14.1565 16.3334 14.3333V19C16.3334 19.3682 16.6319 19.6667 17.0001 19.6667H19.6667C20.0349 19.6667 20.3334 19.3682 20.3334 19V14.3333C20.3334 13.0957 19.8417 11.9087 18.9666 11.0335C18.0914 10.1583 16.9044 9.66666 15.6667 9.66666ZM15.6667 11C14.7827 11 13.9348 11.3512 13.3097 11.9763C12.6846 12.6014 12.3334 13.4493 12.3334 14.3333V18.3333H13.6667V14.3333C13.6667 13.8029 13.8775 13.2942 14.2525 12.9191C14.6276 12.544 15.1363 12.3333 15.6667 12.3333C16.1972 12.3333 16.7059 12.544 17.081 12.9191C17.456 13.2942 17.6667 13.8029 17.6667 14.3333V18.3333H19.0001V14.3333C19.0001 13.4493 18.6489 12.6014 18.0238 11.9763C17.3986 11.3512 16.5508 11 15.6667 11Z" fill="#00A1BD"/>
<path fill-rule="evenodd" clip-rule="evenodd" d="M5.66675 11C5.66675 10.6318 5.96522 10.3333 6.33341 10.3333H9.00008C9.36827 10.3333 9.66675 10.6318 9.66675 11V19C9.66675 19.3682 9.36827 19.6667 9.00008 19.6667H6.33341C5.96522 19.6667 5.66675 19.3682 5.66675 19V11ZM7.00008 11.6667V18.3333H8.33341V11.6667H7.00008Z" fill="#00A1BD"/>
</svg>
