<svg width="20" height="21" viewBox="0 0 20 21" fill="none" xmlns="http://www.w3.org/2000/svg">
<path fill-rule="evenodd" clip-rule="evenodd" d="M3 2.26953C2.73478 2.26953 2.48043 2.37489 2.29289 2.56242C2.10536 2.74996 2 3.00431 2 3.26953V17.2695C2 17.5347 2.10536 17.7891 2.29289 17.9766C2.48043 18.1642 2.73478 18.2695 3 18.2695H7C7.55228 18.2695 8 18.7172 8 19.2695C8 19.8218 7.55228 20.2695 7 20.2695H3C2.20435 20.2695 1.44129 19.9535 0.87868 19.3909C0.31607 18.8282 0 18.0652 0 17.2695V3.26953C0 2.47388 0.31607 1.71082 0.87868 1.14821C1.44129 0.585602 2.20435 0.269531 3 0.269531H7C7.55228 0.269531 8 0.717246 8 1.26953C8 1.82182 7.55228 2.26953 7 2.26953H3ZM13.2929 4.56242C13.6834 4.1719 14.3166 4.1719 14.7071 4.56242L19.7071 9.56242C20.0976 9.95295 20.0976 10.5861 19.7071 10.9766L14.7071 15.9766C14.3166 16.3672 13.6834 16.3672 13.2929 15.9766C12.9024 15.5861 12.9024 14.9529 13.2929 14.5624L16.5858 11.2695H7C6.44772 11.2695 6 10.8218 6 10.2695C6 9.71725 6.44772 9.26953 7 9.26953H16.5858L13.2929 5.97664C12.9024 5.58611 12.9024 4.95295 13.2929 4.56242Z" fill="#717D96"/>
</svg>
