<svg width="12" height="16" viewBox="0 0 12 16" fill="none" xmlns="http://www.w3.org/2000/svg">
<path fill-rule="evenodd" clip-rule="evenodd" d="M2.7595 9.56979C1.48706 8.59507 0.666504 7.06003 0.666504 5.33333C0.666504 2.38781 3.05432 0 5.99984 0C8.94536 0 11.3332 2.38781 11.3332 5.33333C11.3332 7.05969 10.5129 8.59447 9.24092 9.56922L9.99405 15.2457C10.0277 15.4994 9.91311 15.75 9.69915 15.8906C9.4852 16.0311 9.20967 16.0367 8.99017 15.905L5.99984 14.1108L3.0095 15.905C2.78999 16.0367 2.51444 16.0311 2.30048 15.8905C2.08652 15.75 1.97194 15.4993 2.00564 15.2456L2.7595 9.56979ZM1.99984 5.33333C1.99984 3.12419 3.7907 1.33333 5.99984 1.33333C8.20898 1.33333 9.99984 3.12419 9.99984 5.33333C9.99984 6.72099 9.29323 7.9436 8.2202 8.661C8.18216 8.68067 8.1464 8.70385 8.11328 8.73005C7.50004 9.11242 6.77574 9.33333 5.99984 9.33333C3.7907 9.33333 1.99984 7.54247 1.99984 5.33333ZM7.99057 10.2827C7.37547 10.5304 6.70357 10.6667 5.99984 10.6667C5.29638 10.6667 4.62473 10.5305 4.00981 10.283L3.50947 14.0501L5.65684 12.7617C5.86796 12.635 6.13171 12.635 6.34283 12.7617L8.49042 14.0502L7.99057 10.2827Z" fill="#232323"/>
</svg>
