<svg width="18" height="23" viewBox="0 0 18 23" fill="none" xmlns="http://www.w3.org/2000/svg">
<path fill-rule="evenodd" clip-rule="evenodd" d="M18 1.26953C18 0.717246 17.5523 0.269531 17 0.269531H3.5C2.57174 0.269531 1.6815 0.63828 1.02513 1.29466C0.368749 1.95103 0 2.84127 0 3.76953V18.7695C0 19.6978 0.368749 20.588 1.02513 21.2444C1.6815 21.9008 2.57174 22.2695 3.5 22.2695H17C17.5523 22.2695 18 21.8218 18 21.2695V1.26953ZM2.43934 2.70887C2.72064 2.42757 3.10218 2.26953 3.5 2.26953H16V15.2695H3.5C2.97616 15.2695 2.46443 15.387 2 15.6073V3.76953C2 3.37171 2.15804 2.99018 2.43934 2.70887ZM2 18.7695C2 19.1674 2.15804 19.5489 2.43934 19.8302C2.72064 20.1115 3.10218 20.2695 3.5 20.2695H16V17.2695H3.5C3.10218 17.2695 2.72064 17.4276 2.43934 17.7089C2.15804 17.9902 2 18.3717 2 18.7695Z" fill="#717D96"/>
</svg>
