<svg width="15" height="16" viewBox="0 0 15 16" fill="none" xmlns="http://www.w3.org/2000/svg">
<path d="M13.8751 9.06246C13.4501 9.06246 13.1667 9.34579 13.1667 9.77079V11.5416C13.1667 12.7458 12.1751 13.7375 10.9709 13.7375H4.02925C2.82508 13.6666 1.83341 12.675 1.83341 11.4708V4.52913C1.83341 3.32496 2.82508 2.33329 4.02925 2.33329H6.86258C7.00425 2.33329 7.21675 2.33329 7.35841 2.40413V4.52913C7.35841 6.51246 8.98758 8.14163 10.9709 8.14163H13.8751C14.1584 8.14163 14.4417 7.99996 14.5126 7.71663C14.6542 7.43329 14.5834 7.14996 14.3709 6.93746L9.41258 1.97913C8.70425 1.27079 7.85425 0.916626 6.86258 0.916626H4.02925C2.04591 0.916626 0.416748 2.54579 0.416748 4.52913V11.4708C0.416748 13.4541 2.04591 15.0833 4.02925 15.0833H10.9709C12.9542 15.0833 14.5834 13.4541 14.5834 11.4708V9.69996C14.5834 9.34579 14.3001 9.06246 13.8751 9.06246ZM8.77508 3.32496L12.1751 6.72496H10.9709C9.76675 6.72496 8.77508 5.73329 8.77508 4.52913V3.32496Z" fill="#717D96"/>
</svg>
