<svg width="24" height="25" viewBox="0 0 24 25" fill="none" xmlns="http://www.w3.org/2000/svg">
<path fill-rule="evenodd" clip-rule="evenodd" d="M12 8.26953C9.79086 8.26953 8 10.0604 8 12.2695C8 14.4787 9.79086 16.2695 12 16.2695C14.2091 16.2695 16 14.4787 16 12.2695C16 10.0604 14.2091 8.26953 12 8.26953ZM10 12.2695C10 11.165 10.8954 10.2695 12 10.2695C13.1046 10.2695 14 11.165 14 12.2695C14 13.3741 13.1046 14.2695 12 14.2695C10.8954 14.2695 10 13.3741 10 12.2695Z" fill="#717D96"/>
<path fill-rule="evenodd" clip-rule="evenodd" d="M20.3149 15.6733L19.4 15.2695L20.3191 15.6635C20.3691 15.5469 20.452 15.4476 20.5577 15.3776C20.663 15.3079 20.7863 15.2703 20.9125 15.2695H21C21.7957 15.2695 22.5587 14.9535 23.1213 14.3909C23.6839 13.8282 24 13.0652 24 12.2695C24 11.4739 23.6839 10.7108 23.1213 10.1482C22.5587 9.5856 21.7957 9.26953 21 9.26953H20.8325C20.7063 9.26874 20.583 9.2312 20.4777 9.16148C20.4068 9.11451 20.3461 9.05432 20.2988 8.9846C20.2845 8.91646 20.2631 8.8498 20.2349 8.78577C20.1824 8.66695 20.1668 8.53514 20.19 8.40735C20.2129 8.28095 20.2727 8.16421 20.3619 8.07184L20.4167 8.01703C20.6955 7.7385 20.917 7.40738 21.0679 7.04335C21.2189 6.67916 21.2966 6.28878 21.2966 5.89453C21.2966 5.50028 21.2189 5.1099 21.0679 4.74571C20.9171 4.38186 20.6961 4.05127 20.4175 3.77282C20.1389 3.49389 19.808 3.27261 19.4438 3.12164C19.0796 2.97067 18.6892 2.89296 18.295 2.89296C17.9008 2.89296 17.5104 2.97067 17.1462 3.12164C16.782 3.27261 16.4511 3.49389 16.1725 3.77282L16.1177 3.82764C16.0253 3.91682 15.9086 3.97666 15.7822 3.99958C15.6544 4.02275 15.5226 4.00711 15.4038 3.95467L15.3939 3.95039C15.2774 3.90045 15.178 3.81754 15.1081 3.71185C15.0383 3.60657 15.0008 3.48328 15 3.35703V3.26953C15 2.47388 14.6839 1.71082 14.1213 1.14821C13.5587 0.585602 12.7956 0.269531 12 0.269531C11.2044 0.269531 10.4413 0.585602 9.87868 1.14821C9.31607 1.71082 9 2.47388 9 3.26953V3.43703C8.99921 3.56328 8.96167 3.68657 8.89195 3.79185C8.84498 3.86276 8.78479 3.92343 8.71507 3.97075C8.64693 3.98502 8.58027 4.00641 8.51624 4.03467C8.39742 4.08711 8.26561 4.10275 8.13782 4.07958C8.01142 4.05666 7.89468 3.99681 7.80231 3.90763L7.7475 3.85282C7.46888 3.57389 7.13802 3.35261 6.77382 3.20164C6.40963 3.05067 6.01925 2.97296 5.625 2.97296C5.23075 2.97296 4.84037 3.05067 4.47618 3.20164C4.11216 3.35254 3.78143 3.57368 3.50289 3.85242C3.22415 4.13096 3.00301 4.46169 2.85211 4.82571C2.70113 5.1899 2.62343 5.58028 2.62343 5.97453C2.62343 6.36878 2.70113 6.75916 2.85211 7.12335C3.00308 7.48755 3.22436 7.81841 3.50329 8.09703L3.5581 8.15184C3.64728 8.24421 3.70713 8.36095 3.73005 8.48735C3.75322 8.61514 3.73758 8.74695 3.68514 8.86577C3.67663 8.88504 3.66874 8.90458 3.66146 8.92435C3.61644 9.04676 3.53564 9.1528 3.42955 9.22867C3.32591 9.3028 3.20283 9.34479 3.07564 9.34953H3C2.20435 9.34953 1.44129 9.6656 0.87868 10.2282C0.316071 10.7908 0 11.5539 0 12.3495C0 13.1452 0.316071 13.9082 0.87868 14.4709C1.44129 15.0335 2.20435 15.3495 3 15.3495H3.1675C3.29374 15.3503 3.41704 15.3879 3.52232 15.4576C3.62801 15.5276 3.71092 15.6269 3.76086 15.7435L3.76514 15.7533C3.81758 15.8721 3.83322 16.0039 3.81005 16.1317C3.78713 16.2581 3.72728 16.3748 3.63811 16.4672L3.58329 16.522C3.30436 16.8007 3.08308 17.1315 2.93211 17.4957C2.78113 17.8599 2.70343 18.2503 2.70343 18.6445C2.70343 19.0388 2.78113 19.4292 2.93211 19.7934C3.08308 20.1575 3.30436 20.4884 3.58329 20.767C3.86174 21.0456 4.19233 21.2666 4.55618 21.4174C4.92037 21.5684 5.31075 21.6461 5.705 21.6461C6.09925 21.6461 6.48963 21.5684 6.85382 21.4174C7.21784 21.2665 7.54857 21.0454 7.82712 20.7666L7.8823 20.7114C7.97467 20.6223 8.09142 20.5624 8.21782 20.5395C8.34561 20.5163 8.47742 20.532 8.59624 20.5844C8.61551 20.5929 8.63505 20.6008 8.65482 20.6081C8.77723 20.6531 8.88326 20.7339 8.95914 20.84C9.03327 20.9436 9.07526 21.0667 9.08 21.1939V21.2695C9.08 22.0652 9.39607 22.8282 9.95868 23.3909C10.5213 23.9535 11.2843 24.2695 12.08 24.2695C12.8757 24.2695 13.6387 23.9535 14.2013 23.3909C14.7639 22.8282 15.08 22.0652 15.08 21.2695V21.102C15.0808 20.9758 15.1183 20.8525 15.1881 20.7472C15.258 20.6415 15.3574 20.5586 15.4739 20.5087L15.4838 20.5044C15.6026 20.452 15.7344 20.4363 15.8622 20.4595C15.9886 20.4824 16.1053 20.5422 16.1977 20.6314L16.2525 20.6862C16.531 20.965 16.8622 21.1865 17.2262 21.3374C17.5904 21.4884 17.9808 21.5661 18.375 21.5661C18.7692 21.5661 19.1596 21.4884 19.5238 21.3374C19.8878 21.1865 20.2186 20.9654 20.4971 20.6866C20.7759 20.4081 20.997 20.0774 21.1479 19.7134C21.2989 19.3492 21.3766 18.9588 21.3766 18.5645C21.3766 18.1703 21.2989 17.7799 21.1479 17.4157C20.997 17.0517 20.7758 16.721 20.4971 16.4424L20.4419 16.3872C20.3527 16.2948 20.2929 16.1781 20.27 16.0517C20.2468 15.9239 20.2624 15.7921 20.3149 15.6733ZM11.2929 2.56242C11.4804 2.37489 11.7348 2.26953 12 2.26953C12.2652 2.26953 12.5196 2.37489 12.7071 2.56242C12.8946 2.74996 13 3.00432 13 3.26953V3.35953L13 3.36352C13.0021 3.88033 13.1552 4.38526 13.4406 4.81615C13.7249 5.24554 14.1282 5.58273 14.6011 5.78654C15.0843 5.99861 15.6198 6.06164 16.139 5.96749C16.66 5.87303 17.1407 5.62465 17.5193 5.25439L17.5271 5.24664L17.5871 5.18664C17.68 5.09366 17.7907 5.01951 17.9121 4.96918C18.0335 4.91886 18.1636 4.89296 18.295 4.89296C18.4264 4.89296 18.5565 4.91886 18.6779 4.96918C18.7993 5.01951 18.9096 5.09327 19.0025 5.18624L19.0033 5.18703C19.0963 5.27991 19.17 5.39019 19.2203 5.51159C19.2707 5.63299 19.2966 5.76312 19.2966 5.89453C19.2966 6.02595 19.2707 6.15607 19.2203 6.27747C19.17 6.39887 19.0963 6.50916 19.0033 6.60203L18.9429 6.66243L18.9351 6.67027C18.5649 7.04878 18.3165 7.52954 18.222 8.05053C18.14 8.50286 18.1773 8.96751 18.3284 9.39914C18.3403 9.48995 18.3646 9.57891 18.4009 9.66346C18.6045 10.1385 18.9425 10.5436 19.3734 10.829C19.8043 11.1143 20.3092 11.2675 20.826 11.2695L20.83 11.2695H21C21.2652 11.2695 21.5196 11.3749 21.7071 11.5624C21.8946 11.75 22 12.0043 22 12.2695C22 12.5347 21.8946 12.7891 21.7071 12.9766C21.5196 13.1642 21.2652 13.2695 21 13.2695L20.91 13.2695L20.906 13.2695C20.3892 13.2716 19.8843 13.4247 19.4534 13.7101C19.024 13.9945 18.6867 14.3978 18.4829 14.8708C18.2709 15.3539 18.2079 15.8893 18.302 16.4085C18.3965 16.9295 18.6449 17.4103 19.0151 17.7888L19.0229 17.7966L19.0829 17.8566C19.1759 17.9495 19.25 18.0602 19.3003 18.1816C19.3507 18.303 19.3766 18.4331 19.3766 18.5645C19.3766 18.6959 19.3507 18.8261 19.3003 18.9475C19.25 19.0689 19.1763 19.1792 19.0833 19.272L19.0825 19.2728C18.9896 19.3658 18.8793 19.4396 18.7579 19.4899C18.6365 19.5402 18.5064 19.5661 18.375 19.5661C18.2436 19.5661 18.1135 19.5402 17.9921 19.4899C17.8707 19.4396 17.7604 19.3658 17.6675 19.2728L17.6071 19.2124L17.5993 19.2047C17.2207 18.8344 16.74 18.586 16.219 18.4916C15.6998 18.3974 15.1643 18.4604 14.6812 18.6725C14.2083 18.8763 13.805 19.2135 13.5206 19.6429C13.2352 20.0738 13.0821 20.5787 13.08 21.0955L13.08 21.0995V21.2695C13.08 21.5347 12.9746 21.7891 12.7871 21.9766C12.5996 22.1642 12.3452 22.2695 12.08 22.2695C11.8148 22.2695 11.5604 22.1642 11.3729 21.9766C11.1854 21.7891 11.08 21.5347 11.08 21.2695V21.1795L11.0797 21.1561C11.0673 20.6245 10.8952 20.109 10.5859 19.6765C10.2827 19.2526 9.86132 18.9276 9.37477 18.7421C8.89796 18.5384 8.37163 18.479 7.861 18.5716C7.34 18.666 6.85925 18.9144 6.48073 19.2847L6.47288 19.2924L6.41288 19.3524C6.32001 19.4454 6.20934 19.5196 6.08794 19.5699C5.96654 19.6202 5.83641 19.6461 5.705 19.6461C5.57359 19.6461 5.44346 19.6202 5.32206 19.5699C5.20066 19.5196 5.09037 19.4458 4.9975 19.3528L4.99671 19.352C4.90374 19.2592 4.82998 19.1489 4.77965 19.0275C4.72933 18.9061 4.70343 18.7759 4.70343 18.6445C4.70343 18.5131 4.72933 18.383 4.77965 18.2616C4.82998 18.1402 4.90374 18.0299 4.99671 17.937L5.0571 17.8766L5.06486 17.8688C5.43512 17.4903 5.68349 17.0095 5.77796 16.4885C5.87211 15.9693 5.80908 15.4338 5.59701 14.9507C5.3932 14.4778 5.05601 14.0745 4.62661 13.7901C4.19572 13.5047 3.6908 13.3516 3.17399 13.3495L3.17 13.3495H3C2.73478 13.3495 2.48043 13.2442 2.29289 13.0566C2.10536 12.8691 2 12.6147 2 12.3495C2 12.0843 2.10536 11.83 2.29289 11.6424C2.48043 11.4549 2.73478 11.3495 3 11.3495H3.09L3.11338 11.3493C3.64498 11.3368 4.16054 11.1648 4.59305 10.8554C5.01698 10.5522 5.34189 10.1309 5.52745 9.64431C5.73113 9.1675 5.79055 8.64116 5.69796 8.13053C5.60349 7.60954 5.35512 7.12878 4.98486 6.75027L4.97711 6.74242L4.91711 6.68242C4.82413 6.58955 4.74998 6.47887 4.69965 6.35747C4.64933 6.23607 4.62343 6.10595 4.62343 5.97453C4.62343 5.84312 4.64933 5.71299 4.69965 5.59159C4.74998 5.47019 4.82374 5.3599 4.91671 5.26703L4.9175 5.26624C5.01037 5.17327 5.12066 5.09951 5.24206 5.04918C5.36346 4.99886 5.49358 4.97296 5.625 4.97296C5.75642 4.97296 5.88654 4.99886 6.00794 5.04918C6.12934 5.09951 6.23963 5.17327 6.3325 5.26624L6.39289 5.32664L6.40073 5.33439C6.77925 5.70465 7.26 5.95303 7.781 6.04749C8.23333 6.12951 8.69798 6.09225 9.12961 5.9411C9.22042 5.92923 9.30938 5.90491 9.39393 5.86867C9.86895 5.66508 10.2741 5.32704 10.5594 4.89615C10.8448 4.46526 10.9979 3.96033 11 3.44352L11 3.43953V3.26953C11 3.00432 11.1054 2.74996 11.2929 2.56242Z" fill="#717D96"/>
</svg>
