<svg width="32" height="32" viewBox="0 0 32 32" fill="none" xmlns="http://www.w3.org/2000/svg">
<rect width="32" height="32" rx="3" fill="#EEF1F9"/>
<path fill-rule="evenodd" clip-rule="evenodd" d="M18.6318 12.5124C19.2359 13.1223 20.0739 13.5 21.0001 13.5C22.841 13.5 24.3334 12.0076 24.3334 10.1667C24.3334 8.32573 22.841 6.83334 21.0001 6.83334C19.1591 6.83334 17.6667 8.32573 17.6667 10.1667C17.6667 10.4809 17.7102 10.7849 17.7915 11.0731L13.3684 13.6543C12.7643 13.0445 11.9263 12.6667 11.0001 12.6667C9.15913 12.6667 7.66675 14.1591 7.66675 16C7.66675 17.841 9.15913 19.3333 11.0001 19.3333C11.9265 19.3333 12.7646 18.9554 13.3687 18.3454L17.7925 20.9232C17.7106 21.2125 17.6667 21.5178 17.6667 21.8333C17.6667 23.6743 19.1591 25.1667 21.0001 25.1667C22.841 25.1667 24.3334 23.6743 24.3334 21.8333C24.3334 19.9924 22.841 18.5 21.0001 18.5C20.0753 18.5 19.2384 18.8766 18.6345 19.4849L14.2088 16.9059C14.29 16.6179 14.3334 16.314 14.3334 16C14.3334 15.6858 14.29 15.3818 14.2087 15.0937L18.6318 12.5124ZM21.0001 8.50001C20.0796 8.50001 19.3334 9.2462 19.3334 10.1667C19.3334 10.4559 19.4071 10.7278 19.5366 10.9649C19.5453 10.9779 19.5536 10.9913 19.5616 11.005C19.5695 11.0186 19.577 11.0323 19.5841 11.0461C19.8782 11.5187 20.4024 11.8333 21.0001 11.8333C21.9206 11.8333 22.6667 11.0872 22.6667 10.1667C22.6667 9.2462 21.9206 8.50001 21.0001 8.50001ZM12.4169 15.1218C12.4238 15.1352 12.4311 15.1485 12.4387 15.1617C12.4465 15.175 12.4545 15.1879 12.4629 15.2006C12.5929 15.4379 12.6667 15.7103 12.6667 16C12.6667 16.2897 12.5928 16.5622 12.4628 16.7995C12.4544 16.8123 12.4463 16.8254 12.4385 16.8388C12.4309 16.8518 12.4237 16.8649 12.4169 16.8781C12.1229 17.3515 11.5983 17.6667 11.0001 17.6667C10.0796 17.6667 9.33341 16.9205 9.33341 16C9.33341 15.0795 10.0796 14.3333 11.0001 14.3333C11.5983 14.3333 12.1229 14.6485 12.4169 15.1218ZM19.3334 21.8333C19.3334 21.5625 19.398 21.3068 19.5126 21.0807C19.5333 21.0535 19.5525 21.0248 19.5702 20.9946C19.5871 20.9656 19.602 20.936 19.615 20.906C19.9142 20.4601 20.4228 20.1667 21.0001 20.1667C21.9206 20.1667 22.6667 20.9129 22.6667 21.8333C22.6667 22.7538 21.9206 23.5 21.0001 23.5C20.0796 23.5 19.3334 22.7538 19.3334 21.8333Z" fill="#00A1BD"/>
</svg>
