<svg width="16" height="16" viewBox="0 0 16 16" fill="none" xmlns="http://www.w3.org/2000/svg">
<g clip-path="url(#clip0_1105_713)">
<path d="M3.69407 1.35821C4.03396 1.37816 4.28452 1.38394 4.5325 1.40966C4.79846 1.43749 4.98843 1.34036 5.13116 1.11093C5.26157 0.901444 5.40636 0.700361 5.54909 0.499278C5.90849 -0.00684195 6.48867 -0.141247 7.02828 0.156439C7.24238 0.274569 7.45751 0.391124 7.6634 0.522904C7.89701 0.67201 8.11675 0.663609 8.34728 0.518704C8.54855 0.391649 8.757 0.276144 8.96494 0.16064C9.51328 -0.143347 10.0924 -0.00841699 10.458 0.508203C10.6079 0.720312 10.7553 0.93452 10.8985 1.15188C11.0248 1.34404 11.1953 1.42961 11.4212 1.41124C11.6574 1.39234 11.8941 1.37974 12.1307 1.36504C12.8146 1.32251 13.2716 1.68477 13.3974 2.37308C13.4441 2.63034 13.4857 2.88865 13.5247 3.14748C13.5571 3.36327 13.6762 3.50135 13.8697 3.58115C14.1069 3.6788 14.3457 3.77331 14.5808 3.87516C15.1769 4.13295 15.4331 4.68054 15.2565 5.31529C15.1867 5.56678 15.1122 5.81721 15.0373 6.06712C14.9731 6.28185 15.0219 6.46509 15.1692 6.62784C15.3515 6.82998 15.5343 7.03211 15.7093 7.24107C16.0975 7.70413 16.0965 8.29741 15.7068 8.76153C15.5317 8.96996 15.3489 9.17262 15.1667 9.37475C15.0188 9.53856 14.9741 9.72231 15.0373 9.93652C15.1184 10.2122 15.2016 10.4867 15.2729 10.765C15.4131 11.3116 15.1656 11.8502 14.6635 12.0849C14.4135 12.2015 14.1567 12.3033 13.9 12.4046C13.6839 12.4897 13.5519 12.6351 13.5175 12.8751C13.478 13.1533 13.4323 13.4311 13.382 13.7072C13.2819 14.2574 12.8275 14.6439 12.2796 14.637C12.0111 14.6339 11.7416 14.6187 11.4741 14.5903C11.1999 14.5609 11.0063 14.6617 10.8605 14.8974C10.7342 15.1022 10.5941 15.298 10.4544 15.4933C10.0852 16.0089 9.51174 16.1407 8.95929 15.8367C8.7339 15.7128 8.51107 15.5842 8.28978 15.4524C8.09468 15.3364 7.90625 15.3337 7.7096 15.4524C7.4837 15.5889 7.25419 15.7186 7.02315 15.8456C6.48353 16.1412 5.90387 16.0047 5.54447 15.497C5.39815 15.2902 5.25336 15.0822 5.11576 14.8691C4.97816 14.6565 4.79538 14.5646 4.54534 14.5893C4.29068 14.6145 4.03448 14.6286 3.77828 14.6376C3.17346 14.6586 2.71804 14.2811 2.61022 13.6731C2.56196 13.4027 2.51575 13.1318 2.47622 12.8604C2.44336 12.6362 2.32014 12.4949 2.1199 12.4136C1.88218 12.317 1.64395 12.2214 1.40829 12.1206C0.834272 11.8754 0.570369 11.3247 0.73518 10.7125C0.801412 10.4668 0.870725 10.2216 0.948767 9.97957C1.02681 9.73754 0.983166 9.53383 0.809627 9.3485C0.627873 9.15477 0.45228 8.95473 0.282335 8.7505C-0.097089 8.29478 -0.0960621 7.70046 0.285416 7.24527C0.460495 7.03631 0.642249 6.83365 0.825544 6.63204C0.979572 6.46299 1.02424 6.27398 0.958008 6.05295C0.877913 5.78413 0.796791 5.51532 0.726452 5.24336C0.580124 4.68002 0.836839 4.13715 1.36054 3.90246C1.61212 3.78958 1.86883 3.68825 2.12401 3.58325C2.32476 3.5003 2.44439 3.35591 2.47725 3.13331C2.51627 2.86817 2.56093 2.60356 2.60766 2.34C2.71856 1.71575 3.16986 1.34089 3.69202 1.35769L3.69407 1.35821ZM12.1831 14.0049C12.5446 14.0254 12.7356 13.8715 12.7967 13.5088C12.8403 13.251 12.8752 12.9916 12.9204 12.7344C12.9938 12.3164 13.2228 12.0203 13.6058 11.8534C13.8471 11.7484 14.0915 11.6512 14.3328 11.5473C14.6517 11.4097 14.7544 11.1939 14.662 10.8569C14.5926 10.6054 14.5208 10.3544 14.4484 10.1035C14.3262 9.67874 14.4145 9.30177 14.6974 8.97153C14.8622 8.77938 15.0326 8.59299 15.199 8.40241C15.4434 8.12258 15.4444 7.87949 15.2026 7.60333C15.0316 7.40802 14.856 7.21744 14.6881 7.01951C14.4119 6.69347 14.3277 6.32071 14.4468 5.90331C14.5202 5.64605 14.5962 5.38932 14.6666 5.13101C14.7518 4.81757 14.6471 4.59076 14.3554 4.46318C14.1085 4.35503 13.8579 4.25685 13.6104 4.14975C13.2197 3.98069 12.9902 3.67933 12.9183 3.25249C12.8727 2.98158 12.8362 2.70909 12.7843 2.43975C12.7253 2.13262 12.5312 1.97984 12.2252 1.99191C11.9695 2.00189 11.7138 2.02079 11.4582 2.03864C11.0115 2.06961 10.6598 1.89793 10.4031 1.52359C10.2562 1.30938 10.1119 1.09255 9.96202 0.880443C9.77667 0.618983 9.53279 0.56228 9.25657 0.715586C9.03168 0.840541 8.8104 0.971796 8.58706 1.09938C8.19736 1.32146 7.80767 1.32356 7.41746 1.10043C7.19977 0.975996 6.9831 0.848942 6.76438 0.726612C6.46351 0.558605 6.22887 0.612157 6.03018 0.894618C5.87666 1.1125 5.73033 1.33511 5.57631 1.55247C5.32781 1.90423 4.98843 2.06489 4.56536 2.04021C4.32867 2.02656 4.09249 2.00976 3.8558 1.99506C3.45071 1.96986 3.25869 2.12789 3.19707 2.53268C3.16165 2.76527 3.12109 2.99733 3.08566 3.22991C3.01635 3.683 2.77093 3.99224 2.35813 4.1655C2.12144 4.26473 1.88321 4.35975 1.64806 4.46161C1.3554 4.58814 1.24758 4.81495 1.3323 5.12681C1.40058 5.37882 1.47349 5.62925 1.54743 5.87969C1.67681 6.31861 1.58542 6.7066 1.2902 7.04628C1.12436 7.23739 0.953387 7.42377 0.78755 7.61436C0.560101 7.87582 0.559074 8.12205 0.785496 8.38351C0.959549 8.58459 1.14028 8.77938 1.31227 8.98256C1.5885 9.30912 1.67116 9.68241 1.55307 10.0993C1.48171 10.3502 1.40931 10.6012 1.33949 10.8527C1.24553 11.1929 1.34667 11.4097 1.66295 11.5452C1.91042 11.6512 2.16251 11.7478 2.40793 11.8581C2.78787 12.0293 3.01224 12.3301 3.08155 12.7491C3.12314 13.0005 3.16011 13.2531 3.20221 13.5046C3.26228 13.8674 3.45584 14.027 3.81319 14.0081C4.06888 13.9944 4.32456 13.9739 4.58025 13.9603C4.99613 13.9388 5.32935 14.0999 5.57374 14.4449C5.73136 14.6675 5.88026 14.8964 6.03839 15.119C6.22528 15.3826 6.46402 15.4387 6.74333 15.2854C6.97437 15.1584 7.2008 15.0229 7.4303 14.8932C7.80767 14.6806 8.18812 14.6801 8.566 14.8901C8.79089 15.015 9.01166 15.1479 9.23552 15.2739C9.53433 15.4419 9.77256 15.3883 9.96972 15.1074C10.1232 14.8896 10.269 14.6664 10.4236 14.4496C10.6731 14.0999 11.012 13.9377 11.435 13.9613C11.6846 13.975 11.9336 13.9902 12.1831 14.0049Z" fill="#232323"/>
<path d="M7.99824 2.30591C11.0573 2.30276 13.5638 4.86119 13.5695 7.99241C13.5751 11.1263 11.0573 13.701 7.99311 13.6941C4.92999 13.6873 2.42856 11.1252 2.43164 7.99713C2.43421 4.86644 4.93564 2.30906 7.99824 2.30591ZM3.04622 7.99766C3.04622 10.7876 5.26577 13.0594 7.99722 13.0657C10.7097 13.072 12.9492 10.7939 12.9539 8.02286C12.9585 5.214 10.7287 2.93174 7.98233 2.93489C5.27091 2.93751 3.0457 5.21925 3.0457 7.99766H3.04622Z" fill="#232323"/>
<path d="M11.9084 6.86147C11.871 6.91607 11.8191 7.02107 11.7416 7.09983C11.2497 7.59755 10.7553 8.09211 10.2547 8.57986C10.1582 8.67384 10.1366 8.76519 10.1582 8.8912C10.2793 9.59315 10.3933 10.2967 10.5165 10.9986C10.5438 11.1546 10.5304 11.2869 10.4005 11.3845C10.2752 11.4785 10.1484 11.4465 10.0221 11.3782C9.40548 11.0454 8.78628 10.7172 8.17274 10.3786C8.05259 10.3124 7.96018 10.3072 7.83798 10.3749C7.23008 10.7104 6.61602 11.0343 6.00555 11.3651C5.86847 11.4391 5.73343 11.49 5.59378 11.3803C5.45669 11.2732 5.46183 11.132 5.49007 10.9724C5.61175 10.2836 5.72214 9.59262 5.84177 8.9038C5.86487 8.77044 5.84433 8.67489 5.74165 8.57513C5.24516 8.09211 4.75843 7.5986 4.26657 7.11085C4.15156 6.99692 4.05195 6.88247 4.11356 6.70081C4.17518 6.51863 4.32869 6.49448 4.48323 6.4719C5.14864 6.37477 5.81353 6.27607 6.47893 6.18314C6.62218 6.16319 6.711 6.10701 6.77775 5.96316C7.07143 5.33103 7.38206 4.70731 7.6819 4.07833C7.74864 3.93868 7.82925 3.83525 7.99458 3.8321C8.16863 3.82895 8.25386 3.9371 8.32368 4.08358C8.62866 4.72463 8.94031 5.36201 9.24683 6.00253C9.29201 6.09651 9.34079 6.15059 9.45477 6.16634C10.1458 6.26137 10.8354 6.369 11.5259 6.4719C11.7852 6.51075 11.909 6.61681 11.9095 6.86042L11.9084 6.86147ZM9.80031 10.545C9.80031 10.4946 9.8039 10.4689 9.79979 10.4442C9.70532 9.88348 9.61342 9.32276 9.51279 8.76309C9.47993 8.57933 9.50765 8.43023 9.65141 8.30475C9.75821 8.21129 9.85781 8.10892 9.95536 8.00496C10.2634 7.67525 10.5684 7.34239 10.8682 7.0174C10.8143 7.00847 10.7281 6.9922 10.6418 6.97907C10.1417 6.90347 9.64269 6.82419 9.14158 6.75646C8.96958 6.73336 8.86843 6.64621 8.79501 6.49028C8.58245 6.03613 8.36168 5.58672 8.14296 5.13572C8.10188 5.05067 8.05721 4.96772 7.99663 4.84959C7.77945 5.29901 7.58383 5.71535 7.37949 6.12644C7.02984 6.82944 7.21622 6.69451 6.41578 6.82156C5.97731 6.89139 5.53782 6.9544 5.09883 7.02055L5.06803 7.07725C5.1204 7.114 5.17893 7.14445 5.22411 7.18908C5.602 7.56184 5.97475 7.93986 6.35468 8.31C6.47791 8.43023 6.52463 8.56306 6.4928 8.73264C6.44556 8.98307 6.40397 9.23456 6.36187 9.48604C6.30385 9.83151 6.24789 10.1775 6.18628 10.5555C6.62988 10.3182 7.04114 10.0951 7.45548 9.87666C8.08699 9.5438 7.90113 9.53172 8.54805 9.87666C8.96034 10.0961 9.37159 10.3172 9.80031 10.5466V10.545Z" fill="#232323"/>
</g>
<defs>
<clipPath id="clip0_1105_713">
<rect width="16" height="16" fill="white"/>
</clipPath>
</defs>
</svg>
