<svg width="12" height="12" viewBox="0 0 12 12" fill="none" xmlns="http://www.w3.org/2000/svg">
<path fill-rule="evenodd" clip-rule="evenodd" d="M6.68191 1.08281C6.59355 0.914197 6.41124 0.807449 6.21161 0.807449C6.01199 0.807449 5.82967 0.914197 5.74131 1.08281L4.2426 3.94283L0.891018 4.40428C0.693522 4.43147 0.52953 4.5619 0.467968 4.74074C0.406407 4.91959 0.457948 5.11584 0.600929 5.24702L3.02568 7.47167L2.45344 10.6145C2.41969 10.7999 2.50059 10.9872 2.66211 11.0977C2.82364 11.2083 3.03778 11.2228 3.21448 11.1353L6.21161 9.6506L9.20875 11.1353C9.38545 11.2228 9.59959 11.2083 9.76112 11.0977C9.92264 10.9872 10.0035 10.7999 9.96979 10.6145L9.39754 7.47167L11.8223 5.24702C11.9653 5.11584 12.0168 4.91959 11.9553 4.74074C11.8937 4.5619 11.7297 4.43147 11.5322 4.40428L8.18063 3.94283L6.68191 1.08281Z" fill="#00A1BD"/>
</svg>
