<svg width="18" height="23" viewBox="0 0 18 23" fill="none" xmlns="http://www.w3.org/2000/svg">
<path d="M5 11.2695C4.44772 11.2695 4 11.7172 4 12.2695C4 12.8218 4.44772 13.2695 5 13.2695H13C13.5523 13.2695 14 12.8218 14 12.2695C14 11.7172 13.5523 11.2695 13 11.2695H5Z" fill="#717D96"/>
<path d="M4 16.2695C4 15.7172 4.44772 15.2695 5 15.2695H13C13.5523 15.2695 14 15.7172 14 16.2695C14 16.8218 13.5523 17.2695 13 17.2695H5C4.44772 17.2695 4 16.8218 4 16.2695Z" fill="#717D96"/>
<path d="M5 7.26953C4.44772 7.26953 4 7.71725 4 8.26953C4 8.82182 4.44772 9.26953 5 9.26953H7C7.55228 9.26953 8 8.82182 8 8.26953C8 7.71725 7.55228 7.26953 7 7.26953H5Z" fill="#717D96"/>
<path fill-rule="evenodd" clip-rule="evenodd" d="M0.87868 1.14821C1.44129 0.585602 2.20435 0.269531 3 0.269531H11C11.2652 0.269531 11.5196 0.374888 11.7071 0.562424L17.7071 6.56242C17.8946 6.74996 18 7.00431 18 7.26953V19.2695C18 20.0652 17.6839 20.8282 17.1213 21.3909C16.5587 21.9535 15.7957 22.2695 15 22.2695H3C2.20435 22.2695 1.44129 21.9535 0.87868 21.3909C0.31607 20.8282 0 20.0652 0 19.2695V3.26953C0 2.47388 0.31607 1.71082 0.87868 1.14821ZM3 2.26953C2.73478 2.26953 2.48043 2.37489 2.29289 2.56242C2.10536 2.74996 2 3.00431 2 3.26953V19.2695C2 19.5347 2.10536 19.7891 2.29289 19.9766C2.48043 20.1642 2.73478 20.2695 3 20.2695H15C15.2652 20.2695 15.5196 20.1642 15.7071 19.9766C15.8946 19.7891 16 19.5347 16 19.2695V8.26953H11C10.4477 8.26953 10 7.82182 10 7.26953V2.26953H3ZM12 3.68374L14.5858 6.26953H12V3.68374Z" fill="#717D96"/>
</svg>
