<svg width="24" height="25" viewBox="0 0 24 25" fill="none" xmlns="http://www.w3.org/2000/svg">
<path fill-rule="evenodd" clip-rule="evenodd" d="M12 2.26929C9.23858 2.26929 7 4.50786 7 7.26929C7 10.0307 9.23858 12.2693 12 12.2693C14.7614 12.2693 17 10.0307 17 7.26929C17 4.50786 14.7614 2.26929 12 2.26929ZM9 7.26929C9 5.61243 10.3431 4.26929 12 4.26929C13.6569 4.26929 15 5.61243 15 7.26929C15 8.92614 13.6569 10.2693 12 10.2693C10.3431 10.2693 9 8.92614 9 7.26929Z" fill="#717D96"/>
<path d="M8 14.2693C6.67392 14.2693 5.40215 14.7961 4.46447 15.7338C3.52678 16.6714 3 17.9432 3 19.2693V21.2693C3 21.8216 3.44772 22.2693 4 22.2693C4.55228 22.2693 5 21.8216 5 21.2693V19.2693C5 18.4736 5.31607 17.7106 5.87868 17.148C6.44129 16.5854 7.20435 16.2693 8 16.2693H16C16.7956 16.2693 17.5587 16.5854 18.1213 17.148C18.6839 17.7106 19 18.4736 19 19.2693V21.2693C19 21.8216 19.4477 22.2693 20 22.2693C20.5523 22.2693 21 21.8216 21 21.2693V19.2693C21 17.9432 20.4732 16.6714 19.5355 15.7338C18.5979 14.7961 17.3261 14.2693 16 14.2693H8Z" fill="#717D96"/>
</svg>
