<svg width="10" height="10" viewBox="0 0 10 10" fill="none" xmlns="http://www.w3.org/2000/svg">
<path d="M8.80769 2.57693H1.19231C1.0087 2.57693 0.832605 2.64987 0.702772 2.77971C0.572939 2.90954 0.5 3.08563 0.5 3.26924V8.8077C0.5 8.99132 0.572939 9.16741 0.702772 9.29724C0.832605 9.42707 1.0087 9.50001 1.19231 9.50001H8.80769C8.9913 9.50001 9.16739 9.42707 9.29723 9.29724C9.42706 9.16741 9.5 8.99132 9.5 8.8077V3.26924C9.5 3.08563 9.42706 2.90954 9.29723 2.77971C9.16739 2.64987 8.9913 2.57693 8.80769 2.57693Z" stroke="#00A1BD" stroke-width="0.8" stroke-linecap="round" stroke-linejoin="round"/>
<path d="M7.07691 2.57692V1.19231C7.07691 1.0087 7.00397 0.832605 6.87414 0.702772C6.74431 0.572939 6.56821 0.5 6.3846 0.5H3.61537C3.43176 0.5 3.25567 0.572939 3.12584 0.702772C2.996 0.832605 2.92307 1.0087 2.92307 1.19231V2.57692" stroke="#00A1BD" stroke-width="0.8" stroke-linecap="round" stroke-linejoin="round"/>
</svg>
