<svg width="40" height="40" viewBox="0 0 40 40" fill="none" xmlns="http://www.w3.org/2000/svg">
<rect width="40" height="40" rx="20" fill="#00A1BD"/>
<path d="M28.1667 24.018V26.468C28.1676 26.6954 28.121 26.9206 28.0299 27.129C27.9388 27.3374 27.8052 27.5244 27.6376 27.6782C27.47 27.8319 27.2721 27.949 27.0567 28.0219C26.8412 28.0947 26.6129 28.1218 26.3864 28.1013C23.8734 27.8283 21.4594 26.9696 19.3385 25.5942C17.3653 24.3403 15.6924 22.6674 14.4385 20.6942C13.0584 18.5637 12.1994 16.138 11.9314 13.6137C11.911 13.3878 11.9378 13.1602 12.0102 12.9453C12.0826 12.7304 12.1989 12.533 12.3518 12.3655C12.5046 12.198 12.6907 12.0642 12.8981 11.9726C13.1056 11.881 13.3298 11.8335 13.5565 11.8333H16.0065C16.4029 11.8294 16.7871 11.9698 17.0876 12.2282C17.3881 12.4867 17.5844 12.8455 17.6399 13.238C17.7433 14.0221 17.9351 14.7919 18.2115 15.5328C18.3214 15.8251 18.3452 16.1428 18.2801 16.4482C18.2149 16.7536 18.0636 17.034 17.844 17.256L16.8069 18.2932C17.9694 20.3377 19.6623 22.0306 21.7069 23.1932L22.744 22.156C22.9661 21.9364 23.2464 21.7851 23.5518 21.72C23.8572 21.6548 24.1749 21.6786 24.4672 21.7885C25.2081 22.065 25.978 22.2568 26.762 22.3602C27.1587 22.4161 27.5211 22.616 27.78 22.9216C28.039 23.2273 28.1766 23.6175 28.1667 24.018Z" stroke="#EEF1F9" stroke-linecap="round" stroke-linejoin="round"/>
</svg>
