<svg width="40" height="40" viewBox="0 0 40 40" fill="none" xmlns="http://www.w3.org/2000/svg">
<rect width="40" height="40" rx="20" fill="#00A1BD"/>
<path fill-rule="evenodd" clip-rule="evenodd" d="M13.1195 11.6577C14.1722 10.6083 15.9374 10.9018 16.6826 12.14L16.6878 12.1486L18.4058 15.0845C18.9118 15.9671 18.7841 17.1017 18.0294 17.8541L17.7444 18.1381C18.7533 19.7206 20.286 21.2862 21.8353 22.2252L22.1185 21.9742C22.8733 21.2384 23.9999 21.1174 24.878 21.6175L24.8843 21.6211L27.7916 23.3117C28.5114 23.6563 28.8902 24.3221 28.9678 24.9868C29.0453 25.6509 28.8327 26.3718 28.3157 26.8871L27.3361 27.8636C26.319 28.8775 24.6632 29.3262 23.2502 28.686C21.3903 27.9259 18.6008 26.4917 16.0584 23.9575C13.5095 21.4166 12.0727 18.5491 11.3178 16.7951C10.6738 15.3908 11.1175 13.7444 12.1276 12.7279L13.0969 11.6812C13.1042 11.6732 13.1118 11.6654 13.1195 11.6577ZM14.2829 12.8L13.317 13.8431C13.3096 13.851 13.3021 13.8589 13.2944 13.8665C12.6829 14.476 12.4795 15.4202 12.8052 16.1238C12.8084 16.1306 12.8114 16.1374 12.8144 16.1443C13.5301 17.809 14.8684 20.4694 17.213 22.8066C19.5618 25.1479 22.1518 26.4796 23.884 27.186C23.8951 27.1905 23.9062 27.1953 23.917 27.2003C24.6229 27.5251 25.5701 27.3223 26.1815 26.7127L27.1612 25.7362C27.2974 25.6005 27.3705 25.3855 27.346 25.1748C27.3229 24.9775 27.2251 24.8423 27.0741 24.7739C27.049 24.7625 27.0244 24.7498 27.0006 24.736L24.0654 23.0292C23.8082 22.8842 23.4783 22.9203 23.2542 23.1437C23.2429 23.1549 23.2312 23.1659 23.2193 23.1765L22.4846 23.8275C22.2315 24.0517 21.8659 24.097 21.5655 23.9413C19.3629 22.7995 17.2136 20.56 16.0051 18.4087C15.8265 18.0908 15.8816 17.6933 16.1401 17.4356L16.8748 16.7032C17.099 16.4798 17.1351 16.151 16.9896 15.8946L15.2804 12.9739C15.0478 12.5923 14.5387 12.5575 14.2829 12.8Z" fill="white"/>
<path fill-rule="evenodd" clip-rule="evenodd" d="M23.4752 16.5246C23.0658 16.1151 22.4332 15.9683 21.986 16.1174C21.5206 16.2726 21.0176 16.021 20.8625 15.5557C20.7073 15.0903 20.9589 14.5873 21.4242 14.4321C22.5758 14.0483 23.8974 14.4344 24.7314 15.2685C25.5654 16.1025 25.9516 17.4241 25.5677 18.5756C25.4126 19.041 24.9096 19.2925 24.4442 19.1374C23.9788 18.9823 23.7273 18.4792 23.8824 18.0139C24.0315 17.5666 23.8847 16.9341 23.4752 16.5246Z" fill="white"/>
<path fill-rule="evenodd" clip-rule="evenodd" d="M25.6752 14.3247C24.2263 12.8758 22.1202 12.3659 20.233 12.8739C19.7888 12.9935 19.3317 12.7304 19.2121 12.2861C19.0925 11.8419 19.3556 11.3848 19.7999 11.2652C22.2445 10.607 24.97 11.2633 26.8533 13.1466C28.7365 15.0298 29.3928 17.7553 28.7347 20.1999C28.6151 20.6442 28.158 20.9074 27.7137 20.7878C27.2695 20.6681 27.0063 20.211 27.1259 19.7668C27.634 17.8797 27.1241 15.7735 25.6752 14.3247Z" fill="white"/>
</svg>
