<svg width="32" height="33" viewBox="0 0 32 33" fill="none" xmlns="http://www.w3.org/2000/svg">
<rect x="0.192261" y="0.884521" width="31.3846" height="31.3846" rx="15.6923" fill="#00A1BD"/>
<path fill-rule="evenodd" clip-rule="evenodd" d="M20.8845 8.14258C20.1946 8.14258 19.533 8.41662 19.0452 8.90442L8.62858 19.3211C8.52178 19.4279 8.44601 19.5617 8.40938 19.7082L7.57605 23.0416C7.50505 23.3255 7.58826 23.626 7.79524 23.8329C8.00223 24.0399 8.30263 24.1231 8.58661 24.0521L11.9199 23.2188C12.0665 23.1822 12.2003 23.1064 12.3071 22.9996L22.7238 12.5829C22.9653 12.3414 23.1569 12.0547 23.2876 11.7391C23.4183 11.4235 23.4856 11.0853 23.4856 10.7437C23.4856 10.4021 23.4183 10.0639 23.2876 9.74828C23.1569 9.4327 22.9653 9.14596 22.7238 8.90442C22.4822 8.66289 22.1955 8.47129 21.8799 8.34058C21.5643 8.20986 21.2261 8.14258 20.8845 8.14258ZM20.2238 10.0829C20.399 9.90769 20.6367 9.80924 20.8845 9.80924C21.0072 9.80924 21.1287 9.83341 21.2421 9.88037C21.3555 9.92733 21.4585 9.99616 21.5452 10.0829C21.632 10.1697 21.7008 10.2727 21.7478 10.3861C21.7948 10.4995 21.8189 10.621 21.8189 10.7437C21.8189 10.8664 21.7948 10.9879 21.7478 11.1013C21.7008 11.2146 21.632 11.3177 21.5452 11.4044L11.2918 21.6579L9.52981 22.0984L9.9703 20.3364L20.2238 10.0829Z" fill="#EEF1F9"/>
<path d="M15.8845 22.4104C15.4243 22.4104 15.0512 22.7835 15.0512 23.2437C15.0512 23.7039 15.4243 24.077 15.8845 24.077H23.3845C23.8447 24.077 24.2178 23.7039 24.2178 23.2437C24.2178 22.7835 23.8447 22.4104 23.3845 22.4104H15.8845Z" fill="#EEF1F9"/>
</svg>
