<svg width="10" height="10" viewBox="0 0 10 10" fill="none" xmlns="http://www.w3.org/2000/svg">
<path fill-rule="evenodd" clip-rule="evenodd" d="M5 0C3.61929 0 2.5 1.11929 2.5 2.5C2.5 3.88071 3.61929 5 5 5C6.38071 5 7.5 3.88071 7.5 2.5C7.5 1.11929 6.38071 0 5 0ZM3.5 2.5C3.5 1.67157 4.17157 1 5 1C5.82843 1 6.5 1.67157 6.5 2.5C6.5 3.32843 5.82843 4 5 4C4.17157 4 3.5 3.32843 3.5 2.5Z" fill="#00A1BD"/>
<path d="M3 6C2.33696 6 1.70107 6.26339 1.23223 6.73223C0.763392 7.20107 0.5 7.83696 0.5 8.5V9.5C0.5 9.77614 0.723858 10 1 10C1.27614 10 1.5 9.77614 1.5 9.5V8.5C1.5 8.10217 1.65804 7.72064 1.93934 7.43934C2.22064 7.15804 2.60218 7 3 7H7C7.39782 7 7.77936 7.15804 8.06066 7.43934C8.34196 7.72064 8.5 8.10218 8.5 8.5V9.5C8.5 9.77614 8.72386 10 9 10C9.27614 10 9.5 9.77614 9.5 9.5V8.5C9.5 7.83696 9.23661 7.20107 8.76777 6.73223C8.29893 6.26339 7.66304 6 7 6H3Z" fill="#00A1BD"/>
</svg>
