<svg width="11" height="11" viewBox="0 0 11 11" fill="none" xmlns="http://www.w3.org/2000/svg">
<path fill-rule="evenodd" clip-rule="evenodd" d="M5.50002 2.75C4.4875 2.75 3.66669 3.57081 3.66669 4.58333C3.66669 5.59586 4.4875 6.41667 5.50002 6.41667C6.51254 6.41667 7.33335 5.59586 7.33335 4.58333C7.33335 3.57081 6.51254 2.75 5.50002 2.75ZM4.58335 4.58333C4.58335 4.07707 4.99376 3.66667 5.50002 3.66667C6.00628 3.66667 6.41669 4.07707 6.41669 4.58333C6.41669 5.08959 6.00628 5.5 5.50002 5.5C4.99376 5.5 4.58335 5.08959 4.58335 4.58333Z" fill="#717D96"/>
<path fill-rule="evenodd" clip-rule="evenodd" d="M5.24553 10.9229C5.24567 10.9229 5.24578 10.923 5.50002 10.5417L5.24553 10.9229C5.39949 11.0255 5.6003 11.0257 5.75426 10.923L5.50002 10.5417C5.75426 10.923 5.75413 10.9231 5.75426 10.923L5.75582 10.922L5.75887 10.9199L5.76937 10.9128C5.7783 10.9068 5.79103 10.8981 5.80731 10.8868C5.83986 10.8642 5.88664 10.8314 5.94562 10.7888C6.06352 10.7036 6.23044 10.5794 6.43006 10.4204C6.82858 10.1031 7.36113 9.64463 7.89525 9.08084C8.94473 7.97305 10.0834 6.37172 10.0834 4.58333C10.0834 3.36776 9.60047 2.20197 8.74093 1.34243C7.88138 0.482885 6.7156 0 5.50002 0C4.28444 0 3.11866 0.482885 2.25911 1.34243C1.39957 2.20197 0.916687 3.36776 0.916687 4.58333C0.916687 6.37172 2.05531 7.97305 3.10479 9.08084C3.63891 9.64463 4.17146 10.1031 4.56998 10.4204C4.7696 10.5794 4.93652 10.7036 5.05442 10.7888C5.1134 10.8314 5.16018 10.8642 5.19273 10.8868C5.20901 10.8981 5.22174 10.9068 5.23067 10.9128L5.24117 10.9199L5.24422 10.922L5.24553 10.9229ZM2.9073 1.99061C3.59493 1.30298 4.52756 0.916667 5.50002 0.916667C6.47248 0.916667 7.40511 1.30298 8.09274 1.99061C8.78038 2.67824 9.16669 3.61087 9.16669 4.58333C9.16669 6.00328 8.24281 7.38111 7.22979 8.45041C6.73266 8.97516 6.23396 9.40476 5.85904 9.7033C5.71951 9.81441 5.59763 9.90697 5.50002 9.9791C5.40241 9.90697 5.28053 9.81441 5.141 9.7033C4.76608 9.40476 4.26738 8.97516 3.77025 8.45041C2.75723 7.38111 1.83335 6.00328 1.83335 4.58333C1.83335 3.61087 2.21966 2.67824 2.9073 1.99061Z" fill="#717D96"/>
</svg>
