<svg width="26" height="26" viewBox="0 0 26 26" fill="none" xmlns="http://www.w3.org/2000/svg">
<path d="M16.9983 19.8564C17.2829 19.3669 17.5561 18.8958 17.8463 18.3957C17.5908 18.2471 17.3423 18.1021 17.0939 17.9585C16.7378 17.7519 16.7336 17.6791 16.7591 17.2773C16.7902 16.7969 16.7852 16.311 16.7449 15.8313C16.7222 15.5618 16.7874 15.3885 17.0139 15.2612C17.2829 15.1098 17.549 14.9535 17.8456 14.783C17.5639 14.2963 17.2878 13.8195 16.999 13.3201C16.7109 13.4849 16.4356 13.6391 16.1637 13.7997C15.9379 13.9334 15.7518 13.8959 15.5316 13.7481C15.1098 13.4651 14.6695 13.2055 14.2172 12.9735C13.9744 12.849 13.8406 12.7061 13.8498 12.4288C13.8597 12.1217 13.8519 11.8147 13.8519 11.4929H12.1524C12.1524 11.797 12.1439 12.1034 12.1552 12.4082C12.1651 12.6855 12.0356 12.827 11.7899 12.9515C11.3369 13.1814 10.898 13.4446 10.4769 13.7282C10.2574 13.8761 10.0748 13.9171 9.84617 13.7806C9.58214 13.6236 9.30891 13.48 9.01232 13.3144C8.72776 13.8046 8.4517 14.2807 8.1636 14.7773C8.45312 14.9443 8.72564 15.1056 9.00099 15.2598C9.23175 15.3892 9.28272 15.5689 9.26502 15.8335C9.23105 16.3308 9.23034 16.833 9.26502 17.3303C9.28272 17.5942 9.23458 17.7753 9.00312 17.9047C8.72635 18.0596 8.45453 18.2224 8.16502 18.3907C8.44958 18.8816 8.72635 19.3591 9.01232 19.8529C9.30891 19.6817 9.5878 19.5317 9.85608 19.3641C10.0996 19.212 10.2914 19.2445 10.5307 19.4122C10.9179 19.6831 11.3319 19.9229 11.7574 20.1295C12.0221 20.2582 12.1594 20.4033 12.1559 20.706C12.1453 21.6419 12.1559 22.5778 12.1509 23.5137C12.1446 24.7693 11.2279 25.6819 9.9665 25.6847C8.01071 25.6889 6.05491 25.6911 4.09912 25.6847C1.94512 25.6783 0.261144 23.9968 0.258312 21.8492C0.253357 18.0879 0.251941 14.3274 0.259728 10.5662C0.262559 9.29286 0.77646 8.24449 1.80568 7.49182C4.78786 5.31162 7.77853 3.14274 10.7784 0.987292C12.146 0.00471558 13.8668 0.0110822 15.2414 0.999318C18.2264 3.14557 21.2029 5.30313 24.1724 7.47201C25.2271 8.24237 25.7417 9.31196 25.7431 10.6164C25.7467 14.3684 25.7467 18.1205 25.7431 21.8725C25.741 24.0577 24.0733 25.73 21.8811 25.7399C19.9345 25.7491 17.9872 25.7462 16.0406 25.7399C14.7594 25.7356 13.8554 24.8252 13.8512 23.5484C13.8477 22.6125 13.8554 21.6766 13.8477 20.7407C13.8455 20.4634 13.9708 20.3233 14.2157 20.1988C14.6681 19.9682 15.1055 19.7029 15.5281 19.4207C15.7376 19.2806 15.9146 19.2297 16.1354 19.3606C16.415 19.5261 16.6989 19.6853 16.9983 19.8571V19.8564ZM1.10632 16.178C1.10632 18.0582 1.10632 19.9385 1.10632 21.8195C1.10632 21.8372 1.10632 21.8548 1.10632 21.8725C1.12968 23.5215 2.40594 24.8217 4.05169 24.8351C6.04288 24.8514 8.03407 24.8436 10.0253 24.8372C10.7395 24.8351 11.2902 24.2883 11.2987 23.5802C11.3086 22.7504 11.2973 21.9206 11.3058 21.0909C11.3072 20.9409 11.2449 20.8815 11.1224 20.8157C10.8195 20.6537 10.5208 20.4811 10.2369 20.288C10.1123 20.2031 10.0323 20.1988 9.912 20.2773C9.66 20.4408 9.40093 20.5936 9.14115 20.7442C8.83889 20.9197 8.62512 20.868 8.44958 20.5688C8.04398 19.8755 7.64263 19.1802 7.24481 18.4827C7.0813 18.1962 7.14147 17.9832 7.42602 17.8156C7.69217 17.6578 7.96965 17.5192 8.22802 17.3501C8.30093 17.302 8.35543 17.1761 8.35968 17.0827C8.37454 16.7404 8.3526 16.3966 8.37101 16.0549C8.37879 15.9092 8.34765 15.8328 8.2174 15.7648C7.94346 15.622 7.67731 15.4635 7.41328 15.3029C7.14217 15.1381 7.08484 14.928 7.24198 14.6528C7.64404 13.9475 8.05035 13.2444 8.46019 12.5441C8.62512 12.2618 8.83677 12.213 9.13195 12.3771C9.40234 12.5271 9.66425 12.6933 9.9396 12.832C10.0118 12.8681 10.1371 12.8596 10.2107 12.8199C10.53 12.6509 10.8428 12.4691 11.1479 12.2767C11.2194 12.2314 11.2909 12.1274 11.2951 12.0468C11.3121 11.739 11.2987 11.4292 11.3029 11.1201C11.3072 10.7862 11.4551 10.6334 11.7899 10.6313C12.5955 10.6263 13.4003 10.6263 14.2058 10.6313C14.5534 10.6334 14.6964 10.7862 14.6999 11.1406C14.7027 11.432 14.707 11.7235 14.6978 12.0142C14.6928 12.155 14.7332 12.2264 14.8698 12.2922C15.1791 12.4401 15.4686 12.6297 15.7758 12.7832C15.8594 12.8249 15.9953 12.8355 16.0753 12.7959C16.3442 12.6636 16.597 12.4988 16.8596 12.3524C17.1682 12.1798 17.3777 12.2286 17.5518 12.5264C17.9582 13.2189 18.3595 13.9143 18.758 14.6118C18.9215 14.8983 18.8628 15.1112 18.5796 15.281C18.3142 15.4394 18.0374 15.5802 17.7805 15.7507C17.7069 15.7995 17.6481 15.9233 17.6439 16.0153C17.6276 16.3661 17.6283 16.7184 17.6417 17.0693C17.6446 17.1542 17.6984 17.2695 17.7656 17.3133C18.0318 17.4867 18.3156 17.6324 18.5874 17.7972C18.86 17.962 18.9208 18.1721 18.7644 18.4459C18.363 19.1519 17.9567 19.8543 17.5462 20.5546C17.3805 20.8369 17.1661 20.8885 16.8744 20.7273C16.6118 20.5815 16.3499 20.4337 16.0944 20.2766C15.9748 20.2031 15.8933 20.2002 15.7681 20.2865C15.4849 20.4804 15.1883 20.6572 14.8825 20.8136C14.741 20.8857 14.6964 20.9635 14.6978 21.1149C14.7049 21.9093 14.6992 22.7037 14.7013 23.4988C14.7042 24.3067 15.2393 24.8394 16.0533 24.8401C17.9822 24.8422 19.9118 24.8443 21.8407 24.8401C23.6004 24.8365 24.893 23.5519 24.8944 21.7975C24.8986 18.0547 24.8986 14.3111 24.8944 10.5683C24.893 9.56804 24.4916 8.74533 23.6811 8.15536C20.7244 6.00063 17.7628 3.85155 14.7948 1.71238C13.6431 0.882597 12.3229 0.905941 11.1699 1.74138C8.24996 3.8565 5.33149 5.97445 2.41089 8.08957C1.53882 8.72128 1.1049 9.56945 1.10632 10.6454C1.10986 12.4903 1.10703 14.3352 1.10703 16.1808L1.10632 16.178Z" fill="#232323"/>
</svg>
