<svg width="25" height="24" viewBox="0 0 25 24" fill="none" xmlns="http://www.w3.org/2000/svg">
<path d="M10.5166 3.21542C12.4096 2.78771 14.3902 2.9834 16.163 3.77329C16.6675 3.99807 17.2587 3.77134 17.4834 3.26687C17.7082 2.76239 17.4815 2.17122 16.977 1.94644C14.8103 0.981007 12.3896 0.741837 10.0758 1.2646C7.76206 1.78736 5.67929 3.04404 4.13811 4.84722C2.59693 6.6504 1.67992 8.90346 1.52384 11.2704C1.36777 13.6373 1.98099 15.9913 3.27206 17.9812C4.56312 19.9711 6.46285 21.4904 8.68792 22.3125C10.913 23.1345 13.3442 23.2153 15.6189 22.5427C17.8936 21.8702 19.89 20.4803 21.3103 18.5804C22.7306 16.6806 23.4986 14.3725 23.5 12.0004V11.0799C23.5 10.5276 23.0523 10.0799 22.5 10.0799C21.9477 10.0799 21.5 10.5276 21.5 11.0799V11.9993C21.4989 13.9401 20.8705 15.8285 19.7084 17.3829C18.5464 18.9374 16.913 20.0745 15.0518 20.6248C13.1907 21.1751 11.2015 21.109 9.38103 20.4364C7.56051 19.7638 6.00619 18.5208 4.94987 16.8927C3.89354 15.2645 3.39181 13.3386 3.51951 11.402C3.64721 9.4654 4.39749 7.62199 5.65845 6.14666C6.91942 4.67133 8.62351 3.64314 10.5166 3.21542Z" fill="#4CBA09"/>
<path d="M23.2075 4.70663C23.5978 4.31591 23.5975 3.68275 23.2068 3.29242C22.816 2.90209 22.1829 2.90241 21.7925 3.29313L12.4996 12.5953L10.2071 10.3028C9.81658 9.91225 9.18342 9.91225 8.79289 10.3028C8.40237 10.6933 8.40237 11.3265 8.79289 11.717L11.7929 14.717C11.9805 14.9046 12.2349 15.0099 12.5003 15.0099C12.7656 15.0098 13.02 14.9043 13.2075 14.7166L23.2075 4.70663Z" fill="#4CBA09"/>
</svg>
