<svg width="14" height="15" viewBox="0 0 14 15" fill="none" xmlns="http://www.w3.org/2000/svg">
<path d="M3.7037 2.41467C3.70419 2.4148 3.70469 2.41488 3.7052 2.41491C3.96504 2.43014 4.15668 2.43458 4.34637 2.45425C4.54999 2.47556 4.69544 2.40119 4.80472 2.22553C4.90457 2.06514 5.01542 1.91119 5.1247 1.75723C5.39987 1.36973 5.84408 1.26682 6.25722 1.49474C6.42115 1.58519 6.58585 1.67442 6.74349 1.77532C6.92235 1.88948 7.09059 1.88305 7.2671 1.7721C7.42119 1.67483 7.58079 1.58639 7.74 1.49796C8.15983 1.26521 8.60324 1.36852 8.88313 1.76406C8.99791 1.92646 9.11073 2.09047 9.22041 2.25689C9.31711 2.40401 9.44762 2.46953 9.62058 2.45546C9.80141 2.44099 9.98263 2.43134 10.1638 2.42009C10.6875 2.38753 11.0373 2.66489 11.1336 3.19188C11.1694 3.38884 11.2012 3.58662 11.2311 3.78479C11.2559 3.95 11.3471 4.05572 11.4953 4.11682C11.6769 4.19159 11.8597 4.26394 12.0397 4.34193C12.4961 4.53929 12.6923 4.95855 12.557 5.44454C12.5036 5.63709 12.4466 5.82883 12.3892 6.02017C12.34 6.18458 12.3774 6.32486 12.4902 6.44948C12.6298 6.60424 12.7697 6.759 12.9038 6.91898C13.2009 7.27352 13.2001 7.72775 12.9018 8.0831C12.7677 8.24268 12.6278 8.39785 12.4882 8.55261C12.375 8.67802 12.3408 8.81871 12.3892 8.98272C12.4513 9.19375 12.515 9.40399 12.5696 9.61703C12.6769 10.0355 12.4875 10.4479 12.103 10.6276C11.9116 10.7168 11.715 10.7948 11.5185 10.8724C11.353 10.9375 11.2519 11.0489 11.2256 11.2326C11.1953 11.4456 11.1604 11.6583 11.1218 11.8697C11.0452 12.291 10.6973 12.5868 10.2778 12.5816C10.0723 12.5792 9.86588 12.5675 9.66107 12.5458C9.45116 12.5233 9.30296 12.6005 9.19132 12.781C9.09462 12.9377 8.9873 13.0877 8.88038 13.2372C8.59774 13.632 8.15865 13.7328 7.73567 13.5001C7.5631 13.4052 7.3925 13.3068 7.22307 13.2059C7.07369 13.117 6.92942 13.115 6.77887 13.2059C6.6059 13.3104 6.43019 13.4097 6.25329 13.5069C5.84014 13.7332 5.39634 13.6287 5.12117 13.24C5.00913 13.0816 4.89828 12.9225 4.79293 12.7593C4.68758 12.5965 4.54763 12.5261 4.35619 12.545C4.16122 12.5643 3.96506 12.5752 3.7689 12.582C3.30583 12.5981 2.95715 12.3091 2.8746 11.8436C2.83765 11.6366 2.80227 11.4291 2.772 11.2213C2.74684 11.0497 2.6525 10.9415 2.49919 10.8792C2.31719 10.8053 2.13479 10.7321 1.95435 10.6549C1.51487 10.4672 1.31282 10.0455 1.439 9.57684C1.48971 9.38871 1.54278 9.20099 1.60253 9.01568C1.66228 8.83037 1.62887 8.6744 1.496 8.53251C1.35684 8.38418 1.2224 8.23103 1.09229 8.07466C0.801787 7.72574 0.802573 7.27071 1.09465 6.9222C1.22869 6.76221 1.36785 6.60705 1.50819 6.45269C1.62612 6.32326 1.66032 6.17855 1.60961 6.00932C1.54828 5.8035 1.48617 5.59769 1.43232 5.38947C1.32029 4.95815 1.51684 4.54251 1.9178 4.36283C2.11042 4.2764 2.30697 4.19882 2.50234 4.11843C2.65604 4.05492 2.74763 3.94437 2.77279 3.77394C2.80266 3.57094 2.83686 3.36834 2.87264 3.16655C2.95748 2.68895 3.30258 2.40201 3.70199 2.41443C3.70257 2.41445 3.70314 2.41453 3.7037 2.41467Z" fill="#92E8F6"/>
<g clip-path="url(#clip0_236_31229)">
<path d="M9.67987 6.16023L6.52163 9.31848L5.08606 7.88291" stroke="#232323" stroke-linecap="round" stroke-linejoin="round"/>
</g>
<defs>
<clipPath id="clip0_236_31229">
<rect x="3.93762" y="4.43755" width="6.89072" height="6.89072" rx="1" fill="white"/>
</clipPath>
</defs>
</svg>
